<?xml version="1.0" encoding="UTF-8"?>
<svg version="1.1" xmlns="http://www.w3.org/2000/svg" width="512" height="512">
<path d="M0 0 C147.84 0 295.68 0 448 0 C448 147.84 448 295.68 448 448 C300.16 448 152.32 448 0 448 C0 300.16 0 152.32 0 0 Z " fill="#665948" transform="translate(32,32)"/>
<path d="M0 0 C147.84 0 295.68 0 448 0 C448 147.84 448 295.68 448 448 C300.16 448 152.32 448 0 448 C0 300.16 0 152.32 0 0 Z M14 14 C14 152.6 14 291.2 14 434 C152.6 434 291.2 434 434 434 C434 295.4 434 156.8 434 14 C295.4 14 156.8 14 14 14 Z " fill="#000000" transform="translate(32,32)"/>
<path d="M0 0 C2.11925604 2.11925604 1.41831017 6.6196093 1.5625 9.5625 C1.60568359 10.36880859 1.64886719 11.17511719 1.69335938 12.00585938 C1.79975262 14.00368805 1.90040888 16.0018207 2 18 C4.39910087 15.03336989 6.71327637 12.036626 8.9375 8.9375 C12.28213465 4.47237062 15.37693452 1.08868095 21 0 C35.36060966 -1.21519411 47.43968294 -1.5193505 59.0859375 7.640625 C64.39610403 12.43545892 68.48123036 18.22522185 69.46691895 25.39749146 C69.65699372 29.48242421 69.69304355 33.54093015 69.671875 37.62890625 C69.68248364 39.14714789 69.69540679 40.66537492 69.71051025 42.18357849 C69.74457337 46.16740851 69.75009878 50.15074888 69.74859619 54.13470459 C69.751369 58.93009693 69.78452563 63.72534979 69.81666946 68.5206213 C69.84165905 72.26231886 69.86145376 76.00371116 69.86248779 79.74549866 C69.88034349 89.20505276 70.33438357 98.56194275 71 108 C77.27 108.66 83.54 109.32 90 110 C90.33 111.32 90.66 112.64 91 114 C44.8 114 -1.4 114 -49 114 C-48.67 112.68 -48.34 111.36 -48 110 C-46.90300781 109.87882812 -45.80601562 109.75765625 -44.67578125 109.6328125 C-43.22131177 109.46390637 -41.76688696 109.29461519 -40.3125 109.125 C-39.59126953 109.04636719 -38.87003906 108.96773438 -38.12695312 108.88671875 C-37.42119141 108.80292969 -36.71542969 108.71914063 -35.98828125 108.6328125 C-35.02208862 108.52283936 -35.02208862 108.52283936 -34.03637695 108.41064453 C-31.54547807 107.90834362 -29.34639853 106.96352344 -27 106 C-26.95371163 93.92613441 -26.91814861 81.85228985 -26.89637566 69.77835369 C-26.88592709 64.17227233 -26.87174831 58.56625156 -26.84912109 52.96020508 C-26.82743099 47.55265009 -26.81543946 42.14515348 -26.81024551 36.73755836 C-26.80654286 34.67183322 -26.79931276 32.60611137 -26.78853989 30.540411 C-26.77407594 27.65276495 -26.77201992 24.76536184 -26.77294922 21.87768555 C-26.76575867 21.01885269 -26.75856812 20.16001984 -26.75115967 19.27516174 C-26.76488985 14.34405029 -26.76488985 14.34405029 -29 10 C-31.87832772 9.4793269 -34.59815523 9.11801163 -37.5 8.875 C-45.80454545 8.09772727 -45.80454545 8.09772727 -48 7 C-47.67 5.68 -47.34 4.36 -47 3 C-39.89091468 1.98310764 -32.75440168 1.52228809 -25.59130859 1.07006836 C-23.50462456 0.93779315 -21.41833766 0.80019902 -19.33203125 0.66210938 C-5.7052758 -0.22331256 -5.7052758 -0.22331256 0 0 Z " fill="#FCFCFB" transform="translate(366,179)"/>
<path d="M0 0 C1.22450489 0.00415169 2.44900978 0.00830338 3.71062088 0.01258087 C7.62321638 0.02781817 11.53569819 0.05110458 15.44824219 0.07617188 C16.69468002 0.08321136 17.94111786 0.09025085 19.22532654 0.09750366 C27.6630026 0.14575612 36.10052481 0.20936025 44.53805447 0.27810097 C48.10668254 0.30693178 51.67532056 0.33447852 55.24395752 0.36218262 C61.95081633 0.41443374 68.65766594 0.46777898 75.36451268 0.52155447 C84.46342035 0.59444288 93.56234183 0.66556571 102.66126251 0.73680687 C116.92360049 0.84852057 131.18591916 0.96252787 145.44824219 1.07617188 C145.44824219 22.85617188 145.44824219 44.63617188 145.44824219 67.07617188 C142.97324219 67.57117188 142.97324219 67.57117188 140.44824219 68.07617188 C138.9339617 63.5333304 138.19363878 59.21188949 137.63574219 54.45117188 C135.379939 37.96107569 127.22399185 21.95472134 114.32324219 11.26367188 C99.18699373 1.6829256 76.23801867 3.00712289 59.32324219 6.45117188 C54.89639877 7.3849797 54.89639877 7.3849797 51.44824219 10.07617188 C51.1543038 13.07251019 51.1543038 13.07251019 51.22119141 16.63720703 C51.22089935 17.31049545 51.2206073 17.98378387 51.2203064 18.67747498 C51.22170171 20.90685841 51.23727202 23.1359092 51.25292969 25.36523438 C51.25665911 26.90937111 51.25950642 28.4535102 51.26150513 29.99765015 C51.26914719 34.06492631 51.28880051 38.13205998 51.31091309 42.19927979 C51.33135923 46.34832837 51.3405042 50.49739995 51.35058594 54.64648438 C51.37204594 62.78977898 51.4061887 70.93295771 51.44824219 79.07617188 C54.30672141 78.77366034 57.16466856 78.46708224 60.02246094 78.15820312 C61.22461243 78.03161316 61.22461243 78.03161316 62.4510498 77.90246582 C74.02340901 76.79234428 74.02340901 76.79234428 84.38574219 72.01367188 C93.30217429 59.314511 95.65370563 44.18805867 97.44824219 29.07617188 C99.09824219 28.74617188 100.74824219 28.41617188 102.44824219 28.07617188 C102.44824219 63.05617188 102.44824219 98.03617188 102.44824219 134.07617188 C100.79824219 134.07617188 99.14824219 134.07617188 97.44824219 134.07617188 C97.39216797 132.47902344 97.39216797 132.47902344 97.33496094 130.84960938 C96.63219803 110.32134679 96.63219803 110.32134679 88.13574219 92.26367188 C79.57546586 85.2960051 69.14830704 85.08930578 58.53027344 84.52148438 C57.35930115 84.45586304 57.35930115 84.45586304 56.16467285 84.38891602 C54.2593183 84.28245533 52.35379615 84.17900154 50.44824219 84.07617188 C50.55577484 93.78594448 50.66841466 103.4956431 50.78758144 113.2052803 C50.84275423 117.71381458 50.8961652 122.22235542 50.94555664 126.73095703 C50.99328345 131.08169916 51.04562925 135.43236341 51.10118294 139.78301239 C51.12156881 141.44317435 51.14028807 143.10335764 51.15731621 144.76355743 C51.18144372 147.08821825 51.21148669 149.41273277 51.24291992 151.73730469 C51.24867538 152.42422897 51.25443085 153.11115326 51.26036072 153.81889343 C51.30468064 158.53964058 51.30468064 158.53964058 52.44824219 163.07617188 C56.45411102 165.39538399 60.84692024 165.57901937 65.37402344 165.92773438 C66.12161423 165.99149261 66.86920502 166.05525085 67.63945007 166.12094116 C70.01266991 166.32166102 72.38661097 166.51156861 74.76074219 166.70117188 C76.3760363 166.83587416 77.99127163 166.97128324 79.60644531 167.10742188 C83.55307745 167.43852498 87.50039191 167.75993826 91.44824219 168.07617188 C91.77824219 169.39617187 92.10824219 170.71617187 92.44824219 172.07617188 C-3.32843673 173.8963648 -3.32843673 173.8963648 -20.55175781 171.07617188 C-20.55175781 170.08617187 -20.55175781 169.09617187 -20.55175781 168.07617188 C-17.59794988 167.23331369 -14.91579909 166.9319119 -11.84863281 166.86523438 C-10.95015625 166.836875 -10.05167969 166.80851563 -9.12597656 166.77929688 C-7.2589785 166.72765101 -5.39176435 166.68325358 -3.52441406 166.64648438 C2.40129818 166.44360692 7.1652665 165.88499379 12.44824219 163.07617188 C14.28385271 158.91227514 14.70370898 155.2528573 14.72671509 150.73599243 C14.73787857 149.48244965 14.74904205 148.22890686 14.76054382 146.93737793 C14.76290838 145.5612796 14.76508411 144.18518093 14.76708984 142.80908203 C14.77639483 141.35008187 14.78656435 139.89108701 14.79753113 138.43209839 C14.82478092 134.48217765 14.8399656 130.53229248 14.85295916 126.58230257 C14.86861171 122.45028394 14.89539515 118.3183377 14.92098999 114.18637085 C14.9677402 106.36675236 15.00450248 98.5471202 15.03766286 90.72743356 C15.07591082 81.82294506 15.12531398 72.91852933 15.17564702 64.01410222 C15.27891097 45.70151206 15.36818936 27.38887747 15.44824219 9.07617188 C13.07067472 8.5828253 10.69229588 8.09418924 8.31323242 7.6081543 C7.64673424 7.469356 6.98023605 7.33055771 6.29354095 7.18755341 C0.68378711 6.04757071 -4.77942679 5.54419256 -10.48925781 5.38867188 C-11.37548828 5.35451172 -12.26171875 5.32035156 -13.17480469 5.28515625 C-15.30007606 5.20474058 -17.42588677 5.13876097 -19.55175781 5.07617188 C-19.88175781 3.75617188 -20.21175781 2.43617187 -20.55175781 1.07617188 C-13.67346328 0.01680772 -6.95097627 -0.04572825 0 0 Z " fill="#FCFCFB" transform="translate(75.5517578125,120.923828125)"/>
<path d="M0 0 C135.3 0 270.6 0 410 0 C410 5.28 410 10.56 410 16 C274.7 16 139.4 16 0 16 C0 10.72 0 5.44 0 0 Z " fill="#D3534E" transform="translate(51,346)"/>
<path d="M0 0 C1.98 0.33 3.96 0.66 6 1 C6 19.15 6 37.3 6 56 C15.9 56 25.8 56 36 56 C36 58.97 36 61.94 36 65 C26.1 65 16.2 65 6 65 C6.06297247 76.22266867 6.13842904 87.44506434 6.23571491 98.66748905 C6.28039532 103.87881479 6.31965669 109.09006276 6.34643555 114.30151367 C6.3724916 119.33317913 6.41291057 124.364545 6.46318626 129.3960247 C6.47983936 131.31325993 6.49136332 133.23054696 6.49761391 135.14784431 C6.50727188 137.83854522 6.5353514 140.52848233 6.56762695 143.21899414 C6.56619186 144.00734146 6.56475677 144.79568878 6.5632782 145.60792542 C6.66246153 151.47479844 7.71254189 156.3736592 11.6875 160.9375 C15.15479957 162.53058358 18.31227764 162.73186012 22 162 C27.11468337 159.00839275 28.77767649 156.07441171 30.45703125 150.4765625 C31.70691694 144.77564503 32.15266045 139.1410783 32.31640625 133.31640625 C32.33718735 132.61603745 32.35796844 131.91566864 32.37937927 131.19407654 C32.44412465 128.98363894 32.50340608 126.77309515 32.5625 124.5625 C32.60575681 123.05272393 32.64937323 121.54295812 32.69335938 120.03320312 C32.79972748 116.35557804 32.90120002 112.67783709 33 109 C34.65 109 36.3 109 38 109 C38.02494747 113.80142856 38.04297577 118.60281836 38.05493164 123.40429688 C38.05992239 125.03353534 38.06671735 126.66276942 38.07543945 128.29199219 C38.21190858 154.46195364 38.21190858 154.46195364 32 162 C24.23725367 169.37460901 14.18727239 169.54772046 3.9921875 169.34765625 C-1.44538177 169.04129627 -5.56328565 167.08457283 -10 164 C-10.60457031 163.58105469 -11.20914063 163.16210938 -11.83203125 162.73046875 C-16.33226751 159.28138256 -18.84566884 155.4972587 -20 150 C-20.15302918 147.12428875 -20.25737265 144.2683351 -20.31640625 141.390625 C-20.33723267 140.52703369 -20.35805908 139.66344238 -20.3795166 138.77368164 C-20.44583924 135.93254608 -20.5046138 133.09131915 -20.5625 130.25 C-20.58367889 129.28267944 -20.60485779 128.31535889 -20.62667847 127.31872559 C-21.07133907 106.87822693 -21.09978172 86.44416533 -21 66 C-27.6 65.67 -34.2 65.34 -41 65 C-41 63.68 -41 62.36 -41 61 C-39.42412109 60.27296875 -39.42412109 60.27296875 -37.81640625 59.53125 C-22.12267971 52.12011579 -11.91501913 43.21760855 -5.6875 26.375 C-3.55179591 19.35363654 -2.62961977 12.08274797 -1.61328125 4.83203125 C-1 1 -1 1 0 0 Z " fill="#FDFDFD" transform="translate(267,126)"/>
<path d="M0 0 C6.1983267 6.03114138 7.1588126 13.839264 7.31420898 22.09130859 C7.34887976 25.65254926 7.33226559 29.21217051 7.30859375 32.7734375 C7.30874892 34.67770442 7.31024091 36.58197165 7.31300354 38.48623657 C7.31438199 42.4585787 7.3019157 46.43055728 7.27905273 50.40283203 C7.25055321 55.49393011 7.25344428 60.58443018 7.26614285 65.67557335 C7.27309277 69.59950884 7.26532053 73.52330586 7.25288582 77.44722366 C7.24837282 79.32510472 7.24803319 81.20300063 7.25195122 83.08088303 C7.25485966 85.699253 7.23837855 88.31679346 7.21655273 90.93505859 C7.22105438 91.70913055 7.22555603 92.48320251 7.23019409 93.2807312 C7.18631477 96.446824 7.00139945 98.76735899 5.51014709 101.59072876 C2.71824736 104.11394544 -0.5915694 103.9759023 -4.1875 104.125 C-4.97237793 104.15770996 -5.75725586 104.19041992 -6.56591797 104.22412109 C-9.08682559 104.2946325 -11.60315812 104.31057933 -14.125 104.3125 C-14.96740234 104.32474609 -15.80980469 104.33699219 -16.67773438 104.34960938 C-22.47101247 104.36298877 -27.57266938 103.55845323 -33.1875 102.125 C-34.9489607 45.10707947 -34.9489607 45.10707947 -32.1875 31.125 C-32.00445312 30.114375 -31.82140625 29.10375 -31.6328125 28.0625 C-29.51762147 18.0349277 -25.27392906 7.4039575 -16.8046875 1.13671875 C-11.19154224 -2.37488662 -5.93686522 -3.49227366 0 0 Z " fill="#665A49" transform="translate(401.1875,184.875)"/>
</svg>
