<?xml version="1.0" encoding="UTF-8"?>
<svg version="1.1" xmlns="http://www.w3.org/2000/svg" width="1309" height="1309">
<path d="M0 0 C0.95841797 0.47791992 1.91683594 0.95583984 2.90429688 1.44824219 C23.04774008 11.5490518 42.49577787 23.13841099 61 36 C61.65838867 36.45407227 62.31677734 36.90814453 62.99511719 37.37597656 C87.36898513 54.21341266 110.31773827 72.82291024 132 93 C133.27860779 94.18493689 134.55725562 95.36983057 135.8359375 96.5546875 C137.1617435 97.78615139 138.48726773 99.01791871 139.8125 100.25 C140.72793579 101.09957275 140.72793579 101.09957275 141.66186523 101.96630859 C147.6912357 107.58978509 153.48059165 113.32710652 158.859375 119.578125 C161.08452282 122.095628 163.36952505 124.5464035 165.66943359 126.99536133 C171.73399934 133.45665003 177.46332273 140.07685794 183 147 C183.98128222 148.19158109 184.96448045 149.38158596 185.94921875 150.5703125 C204.25699843 172.73368983 220.1765034 196.39519988 235 221 C235.48404297 221.80147461 235.96808594 222.60294922 236.46679688 223.42871094 C279.1476477 294.65128299 304.29083832 375.81842848 314 475 C314.05784668 475.7940625 314.11569336 476.588125 314.17529297 477.40625 C319.38794307 551.65171144 309.02331709 626.74098375 263.19238281 754.47119141 C261.88251202 757.24916882 260.59450796 760.03687946 259.3046875 762.82421875 C248.23238333 786.53155657 235.46998475 809.20333519 221 831 C220.44570312 831.83499023 219.89140625 832.66998047 219.3203125 833.53027344 C211.91057702 844.63183136 204.14207365 855.42526736 196 866 C195.53883789 866.60150879 195.07767578 867.20301758 194.60253906 867.82275391 C185.1877786 880.07396988 175.18538646 891.76952216 164.66796875 903.0859375 C162.70600809 905.22886964 160.80850353 907.39094161 158.921875 909.59765625 C154.40041802 914.7832578 149.52938199 919.62047975 144.6574707 924.47290039 C143.06541034 926.05959946 141.4787701 927.65157742 139.89257812 929.24414062 C134.4332503 934.70703723 128.88106185 939.98917929 123 945 C121.39231627 946.45445517 119.78760285 947.91220895 118.1875 949.375 C112.93819023 954.10576093 107.50376055 958.56997052 102 963 C100.86686303 963.92538408 99.73406551 964.85118393 98.6015625 965.77734375 C68.4660981 990.30450149 35.35080181 1010.93327354 1 1029 C0.1553418 1029.44762695 -0.68931641 1029.89525391 -1.55957031 1030.35644531 C-48.75195925 1055.21267475 -99.83257761 1071.5337068 -152 1082 C-153.25055176 1082.25120605 -154.50110352 1082.50241211 -155.78955078 1082.76123047 C-190.72093537 1089.60875124 -226.20433262 1092.2197031 -261.75 1092.1875 C-262.97809387 1092.18689575 -264.20618774 1092.1862915 -265.47149658 1092.18566895 C-283.06967331 1092.16213084 -300.49103345 1091.91593806 -318 1090 C-319.25651367 1089.87109375 -320.51302734 1089.7421875 -321.80761719 1089.609375 C-342.41922628 1087.48419393 -362.71760752 1084.22229001 -383 1080 C-384.8248291 1079.62367432 -384.8248291 1079.62367432 -386.68652344 1079.23974609 C-430.0518284 1070.13946955 -472.18017616 1055.36945565 -512 1036 C-513.0715332 1035.48469727 -514.14306641 1034.96939453 -515.24707031 1034.43847656 C-531.28993923 1026.70496663 -546.78398425 1018.25287296 -562 1009 C-562.84643066 1008.4858252 -563.69286133 1007.97165039 -564.56494141 1007.44189453 C-588.28854229 992.93968138 -611.15432269 976.63265894 -632.1796875 958.421875 C-634.82307903 956.15192659 -637.52165314 953.97888885 -640.25 951.8125 C-652.96983213 941.40702128 -664.49967215 929.59258763 -676.125 918 C-676.66392883 917.46375 -677.20285767 916.9275 -677.75811768 916.375 C-683.72546507 910.43019152 -689.54501879 904.42479434 -695 898 C-696.04489222 896.80815461 -697.09175641 895.61803504 -698.140625 894.4296875 C-705.38690292 886.16450968 -712.32195365 877.729176 -719 869 C-719.55381348 868.28279785 -720.10762695 867.5655957 -720.67822266 866.82666016 C-760.14089356 815.64326185 -790.46810697 758.22363047 -811 697 C-811.57161865 695.30520508 -811.57161865 695.30520508 -812.15478516 693.57617188 C-825.570506 653.3575899 -834.19976107 611.22135243 -838 569 C-838.10296387 567.89027832 -838.20592773 566.78055664 -838.31201172 565.63720703 C-845.91405425 480.11723091 -833.75373125 394.02063441 -787 272 C-786.50886719 270.93410645 -786.01773438 269.86821289 -785.51171875 268.77001953 C-778.41045856 253.40347332 -770.60452647 238.57643611 -762 224 C-761.42991211 223.03288086 -760.85982422 222.06576172 -760.27246094 221.06933594 C-739.58359678 186.14893596 -715.29871831 153.68579934 -687.703125 123.921875 C-685.91061929 121.98431102 -684.12918799 120.03643878 -682.359375 118.078125 C-673.41706268 108.19451665 -664.22753064 98.38276581 -654.04296875 89.76171875 C-651.89489159 87.90936158 -649.81411464 85.99178716 -647.73583984 84.06176758 C-642.63751702 79.33082626 -637.44265778 74.78991227 -632.01953125 70.4296875 C-629.7933284 68.63835739 -627.58511884 66.83261697 -625.38671875 65.0078125 C-595.77924222 40.51675815 -563.0342663 19.74577444 -529 2 C-527.90268555 1.42604492 -526.80537109 0.85208984 -525.67480469 0.26074219 C-500.27402088 -12.94649855 -474.09162656 -23.74255977 -447 -33 C-446.03304199 -33.33451172 -445.06608398 -33.66902344 -444.06982422 -34.01367188 C-367.37023191 -60.35468667 -283.68209826 -68.42655538 0 0 Z M-459 85 C-460.010625 85.46277344 -461.02125 85.92554688 -462.0625 86.40234375 C-494.41844229 101.32652213 -525.07184436 119.81081845 -553 142 C-553.66628418 142.5264209 -554.33256836 143.0528418 -555.01904297 143.59521484 C-562.69915496 149.6840005 -570.19951652 155.90612887 -577.375 162.5859375 C-579.40601667 164.45374747 -581.46237736 166.25119446 -583.55859375 168.04296875 C-588.75700543 172.57679344 -593.60794614 177.45803406 -598.47290039 182.3425293 C-600.05959946 183.93458966 -601.65157742 185.5212299 -603.24414062 187.10742188 C-608.70598454 192.56537772 -614.01447505 198.09844231 -619 204 C-619.87684603 205.00977342 -620.75440622 206.01892731 -621.6328125 207.02734375 C-643.22979384 232.24638936 -661.53185913 259.69574804 -677.69384766 288.66210938 C-678.81057027 290.66093849 -679.94050754 292.65142083 -681.07421875 294.640625 C-722.81486876 369.89630427 -738.797109 458.57802764 -716.93188477 646.0065918 C-698.2084884 709.66613944 -666.55019807 768.15756474 -624 819 C-623.47100098 819.63341309 -622.94200195 820.26682617 -622.39697266 820.91943359 C-617.12566716 827.2098474 -611.83454841 833.38067737 -605.91748047 839.07983398 C-604.10366072 840.89619409 -602.44611561 842.77147155 -600.7890625 844.73046875 C-597.00584066 849.08480917 -592.91543678 853.01961192 -588.6875 856.9375 C-587.93839355 857.63625244 -587.18928711 858.33500488 -586.41748047 859.05493164 C-584.2830718 861.04182926 -582.14297873 863.02235337 -580 865 C-579.47905762 865.48210938 -578.95811523 865.96421875 -578.42138672 866.4609375 C-572.68509983 871.75533915 -566.76737488 876.80067727 -560.66552734 881.66894531 C-559.48829378 882.6097658 -558.31446072 883.55484878 -557.14306641 884.50292969 C-519.67635642 914.76555935 -476.53030775 938.94977307 -431.5625 956.0625 C-430.37245361 956.5157666 -429.18240723 956.9690332 -427.95629883 957.43603516 C-420.98262828 960.03494922 -414.24953654 962.02285367 -407 964 C-407 771.28 -407 578.56 -407 380 C-373.67 380 -340.34 380 -306 380 C-306 579.65 -306 779.3 -306 985 C-301.04370568 985.70804205 -296.21959147 986.2665829 -291.23828125 986.546875 C-290.5045076 986.58850769 -289.77073395 986.63014038 -289.01472473 986.67303467 C-280.40824136 987.1273215 -271.80477249 987.24378035 -263.1875 987.25 C-261.90166016 987.25101212 -261.90166016 987.25101212 -260.58984375 987.25204468 C-200.56333605 987.17814422 -144.55710837 974.06865136 -88 954 C-88 905.82 -88 857.64 -88 808 C-54.67 808 -21.34 808 13 808 C13 837.37 13 866.74 13 897 C22.86664801 892.06667599 31.58258564 884.05427034 40 877 C40.52287598 876.56349121 41.04575195 876.12698242 41.58447266 875.67724609 C48.84181971 869.60267305 55.89420495 863.33352266 62.8125 856.875 C63.51270264 856.22321777 64.21290527 855.57143555 64.93432617 854.89990234 C65.58119385 854.29098145 66.22806152 853.68206055 66.89453125 853.0546875 C67.47050049 852.51312012 68.04646973 851.97155273 68.63989258 851.41357422 C71.11009451 848.84626688 71.1271674 846.92963798 71.13619715 843.48677814 C71.14111063 842.52886047 71.14602411 841.57094279 71.15108648 840.58399731 C71.15142868 839.52212214 71.15177088 838.46024697 71.15212345 837.36619377 C71.15638247 836.24084601 71.16064148 835.11549824 71.16502956 833.95604903 C71.17816608 830.13979555 71.18405441 826.32356476 71.18995667 822.5072937 C71.19717908 819.76160112 71.20583757 817.01591343 71.21438068 814.27022469 C71.2345092 807.48614502 71.24896193 800.70206363 71.26157112 793.91796626 C71.27218517 788.27540991 71.28508617 782.63286261 71.29940033 776.99031448 C71.45660504 714.78230809 71.50495641 652.5740769 71.51926733 590.36588852 C71.52139936 581.35313778 71.52413599 572.34038722 71.52709961 563.32763672 C71.52741403 562.33173972 71.52772844 561.33584272 71.52805238 560.30976702 C71.53862474 528.03557965 71.60366378 495.76179121 71.69800726 463.48774864 C71.79471961 430.31201393 71.83917896 397.13661962 71.81699575 363.96074076 C71.81387932 359.27307387 71.81134458 354.58540682 71.80915642 349.89773941 C71.80848009 348.51388028 71.80848009 348.51388028 71.80779011 347.1020644 C71.80204114 332.26305619 71.85098716 317.4247108 71.9203164 302.58588454 C71.9888294 287.66218895 71.99875997 272.73935399 71.94936544 257.81557511 C71.92178492 248.95300328 71.93850964 240.09313032 72.01946197 231.23087128 C72.06918667 225.3029914 72.06031254 219.37702365 72.00481363 213.44920101 C71.97485843 210.0739566 71.97833351 206.70810367 72.03576452 203.33259641 C72.45920829 186.66427593 72.45920829 186.66427593 64.42873373 172.68276686 C61.12319994 169.5379346 57.64286458 166.73987829 54 164 C52.88642507 163.0803713 51.77903886 162.15315983 50.68005377 161.21614444 C48.95715044 159.75745324 47.20841013 158.32865745 45.43359375 156.93359375 C43.07384623 155.05867397 40.85001471 153.09438505 38.625 151.0625 C33.01228586 146.0338249 27.03651284 141.50082647 21 137 C20.34386719 136.50870605 19.68773437 136.01741211 19.01171875 135.51123047 C-59.94090775 76.64989146 -155.79649228 44.80267426 -254 42 C-254.72590332 41.97663574 -255.45180664 41.95327148 -256.19970703 41.92919922 C-325.56317508 39.9368621 -396.18572818 56.18228221 -459 85 Z M171 329 C171 451.43 171 573.86 171 700 C173.25566383 697.74433617 173.91198296 696.06190744 175.06640625 693.1015625 C175.4648877 692.07981934 175.86336914 691.05807617 176.27392578 690.00537109 C196.4157591 637.16645026 208.65581223 582.6687161 210 526 C210.02191406 525.18354004 210.04382812 524.36708008 210.06640625 523.52587891 C211.60759442 457.60155497 198.83004776 389.32318685 172 329 C171.67 329 171.34 329 171 329 Z " fill="#0F9C5A" transform="translate(914,145)"/>
<path d="M0 0 C33.33 0 66.66 0 101 0 C101 69.3 101 138.6 101 210 C67.67 210 34.34 210 0 210 C0 140.7 0 71.4 0 0 Z " fill="#0F9C5A" transform="translate(668,781)"/>
<path d="M0 0 C33.33 0 66.66 0 101 0 C101 69.3 101 138.6 101 210 C67.67 210 34.34 210 0 210 C0 140.7 0 71.4 0 0 Z " fill="#0F9C5A" transform="translate(668,353)"/>
<path d="M0 0 C33.33 0 66.66 0 101 0 C101 68.97 101 137.94 101 209 C67.67 209 34.34 209 0 209 C0 140.03 0 71.06 0 0 Z " fill="#0F9C5A" transform="translate(826,525)"/>
<path d="M0 0 C33.33 0 66.66 0 101 0 C101 33 101 66 101 100 C67.67 100 34.34 100 0 100 C0 67 0 34 0 0 Z " fill="#FEC905" transform="translate(668,622)"/>
<path d="M0 0 C33.33 0 66.66 0 101 0 C101 32.67 101 65.34 101 99 C67.67 99 34.34 99 0 99 C0 66.33 0 33.66 0 0 Z " fill="#E21C84" transform="translate(826,794)"/>
</svg>
