<?xml version="1.0" encoding="UTF-8"?>
<svg version="1.1" xmlns="http://www.w3.org/2000/svg" width="225" height="225">
<path d="M0 0 C74.25 0 148.5 0 225 0 C225 74.25 225 148.5 225 225 C150.75 225 76.5 225 0 225 C0 150.75 0 76.5 0 0 Z " fill="#D42827" transform="translate(0,0)"/>
<path d="M0 0 C0.72896484 -0.00644531 1.45792969 -0.01289063 2.20898438 -0.01953125 C8.34462007 0.10196649 12.07065492 2.25815492 16.4375 6.625 C16.7159729 9.59890747 16.7159729 9.59890747 16.75634766 13.46142578 C16.76639328 14.16397491 16.7764389 14.86652405 16.78678894 15.59036255 C16.81772731 17.91700406 16.83468527 20.24352996 16.8515625 22.5703125 C16.87026562 24.18172203 16.88983839 25.79312168 16.9102478 27.4045105 C16.96166562 31.6492125 17.00123948 35.8939463 17.03839111 40.13879395 C17.07837047 44.468912 17.1294904 48.79889673 17.1796875 53.12890625 C17.27656096 61.62751323 17.36092895 70.12618597 17.4375 78.625 C17.81460271 78.22300888 18.19170542 77.82101776 18.58023548 77.40684509 C27.82254387 67.56447787 37.14251443 57.80145417 46.54838276 48.1151886 C51.09541435 43.42793199 55.61425881 38.71935187 60.07543945 33.95019531 C64.39196219 29.33765472 68.77356768 24.79674144 73.2056179 20.29519653 C74.87422514 18.57715481 76.51912132 16.83571307 78.13750648 15.07028198 C85.38343407 7.19407802 91.58059612 0.57138496 102.67538452 -0.42236328 C109.31131467 -0.60625333 115.8535129 -0.19808644 122.4375 0.625 C123.16500788 2.03191607 123.86890353 3.45106022 124.5625 4.875 C124.95695313 5.66390625 125.35140625 6.4528125 125.7578125 7.265625 C126.4375 9.625 126.4375 9.625 125.66301632 11.78788185 C119.6495597 20.80239282 110.84975007 28.34742148 103.18359375 35.9765625 C102.03038364 37.12790225 100.87739803 38.27946689 99.72462463 39.4312439 C96.72340447 42.4286875 93.71919145 45.42311313 90.71429443 48.41687012 C87.63515137 51.48569317 84.55891821 54.55743026 81.48242188 57.62890625 C75.47025459 63.63042222 69.45491493 69.62874561 63.4375 75.625 C65.02486669 79.81127762 67.09468314 83.17152527 69.75 86.75 C73.78392694 92.29127937 77.70783085 97.89508814 81.5625 103.5625 C86.47860504 110.77983873 91.4429488 117.96173071 96.4375 125.125 C102.38827016 133.66684646 108.33371596 142.21127286 114.1640625 150.8359375 C116.5394407 154.34244817 118.98590713 157.78973885 121.4609375 161.2265625 C122.78677356 163.10915304 124.112301 164.99196097 125.4375 166.875 C126.40163818 168.17945068 126.40163818 168.17945068 127.38525391 169.51025391 C131.56092889 175.52355403 131.56092889 175.52355403 131.20703125 178.68164062 C130.01384325 181.57375876 128.16857602 184.02838597 126.4375 186.625 C118.43221904 189.84579793 108.49492766 190.62036538 100.31915283 187.63342285 C89.64157325 181.91105204 83.17929708 166.20917037 77.42010498 156.1469574 C71.88562577 146.49652841 65.67265859 137.35725376 59.37063599 128.1965332 C56.49694153 124.01022937 53.65998691 119.79926118 50.8203125 115.58984375 C49.86611874 114.17955837 48.91185905 112.7693176 47.95751953 111.35913086 C45.77050621 108.12341869 43.59977168 104.87729269 41.4375 101.625 C37.16166532 102.40327693 35.02338724 104.37943879 31.96533203 107.35913086 C29.4375 109.625 29.4375 109.625 26.40380859 111.58886719 C21.47527121 115.28658922 18.08830327 118.47527419 16.80505371 124.68588257 C15.98487529 133.0934535 16.23581773 141.53979805 16.49969482 149.97125244 C16.64516968 154.8151835 16.7307784 159.65978318 16.77560425 164.50563049 C16.80487313 167.07712683 16.86577632 169.64850438 16.96194458 172.21836853 C17.09969371 180.57137322 17.09969371 180.57137322 15.24212646 183.52697754 C12.37325319 186.11359347 9.50128594 187.26106701 5.6875 187.2890625 C4.8315625 187.29550781 3.975625 187.30195313 3.09375 187.30859375 C2.2171875 187.28925781 1.340625 187.26992187 0.4375 187.25 C-0.4390625 187.26933594 -1.315625 187.28867188 -2.21875 187.30859375 C-3.50265625 187.29892578 -3.50265625 187.29892578 -4.8125 187.2890625 C-5.58078125 187.28342285 -6.3490625 187.2777832 -7.140625 187.27197266 C-10.68581405 186.32492115 -13.21838909 184.38466492 -15.5625 181.625 C-16.32034016 178.29348087 -16.32034016 178.29348087 -16.33113098 174.42042542 C-16.34119649 173.70576502 -16.351262 172.99110463 -16.36163253 172.25478786 C-16.38786264 169.86517095 -16.37130806 167.47780952 -16.35473633 165.08813477 C-16.36450596 163.37300049 -16.37681227 161.65787906 -16.39146423 159.94277954 C-16.42309059 155.28762234 -16.41659804 150.63324074 -16.40138459 145.97802854 C-16.39223591 142.0912395 -16.40193518 138.20459269 -16.41172332 134.31781238 C-16.43463546 125.14818435 -16.42704841 115.97893233 -16.3996582 106.80932617 C-16.37185441 97.35061118 -16.39120984 87.89284286 -16.43453389 78.4342075 C-16.47030752 70.31171232 -16.47886127 62.18950902 -16.46514148 54.06694645 C-16.45709504 49.21638185 -16.45889208 44.36634753 -16.48600197 39.51584053 C-16.5101398 34.95423446 -16.50016606 30.3939461 -16.46401405 25.83243179 C-16.45636333 24.15951204 -16.46060888 22.48648875 -16.47768784 20.81363869 C-16.59524774 8.26236286 -16.59524774 8.26236286 -14.09218407 4.29389763 C-9.79191061 0.36675793 -5.67820046 -0.25236447 0 0 Z " fill="#FCFAFA" transform="translate(56.5625,17.375)"/>
<path d="M0 0 C74.25 0 148.5 0 225 0 C225 74.25 225 148.5 225 225 C150.75 225 76.5 225 0 225 C0 150.75 0 76.5 0 0 Z M14.16015625 15.81640625 C13.61681641 16.68072266 13.61681641 16.68072266 13.0625 17.5625 C12.68222656 18.14128906 12.30195313 18.72007813 11.91015625 19.31640625 C9.7863321 23.24502518 9.86733857 26.6395066 9.85282898 31.02653503 C9.84915229 31.74624255 9.8454756 32.46595007 9.8416875 33.2074669 C9.83065104 35.62554176 9.82680688 38.04357364 9.82299805 40.46166992 C9.81673332 42.19295386 9.81008651 43.92423646 9.80308533 45.65551758 C9.78204214 51.34715844 9.77168214 57.03879958 9.76171875 62.73046875 C9.75767118 64.69009223 9.75355425 66.64971557 9.74936867 68.60933876 C9.73031579 77.81653433 9.71608542 87.02372187 9.7077567 96.23093337 C9.69798596 106.85674257 9.67167108 117.48234336 9.63125581 128.10807914 C9.60108612 136.32221121 9.58628698 144.53628358 9.58297569 152.75046998 C9.580626 157.65579968 9.57167629 162.56090676 9.54651451 167.46617699 C9.52321416 172.08321416 9.51900845 176.69988244 9.52927589 181.3169632 C9.5297709 183.00841563 9.52346079 184.69988634 9.50971985 186.39128304 C9.2871274 198.28874941 9.2871274 198.28874941 14 209 C15.69309814 210.85512814 15.69309814 210.85512814 17.5625 211.9375 C18.14128906 212.31777344 18.72007813 212.69804687 19.31640625 213.08984375 C23.24502518 215.2136679 26.6395066 215.13266143 31.02653503 215.14717102 C31.74624255 215.15084771 32.46595007 215.1545244 33.2074669 215.1583125 C35.62554176 215.16934896 38.04357364 215.17319312 40.46166992 215.17700195 C42.19295386 215.18326668 43.92423646 215.18991349 45.65551758 215.19691467 C51.34715844 215.21795786 57.03879958 215.22831786 62.73046875 215.23828125 C64.69009223 215.24232882 66.64971557 215.24644575 68.60933876 215.25063133 C77.81653433 215.26968421 87.02372187 215.28391458 96.23093337 215.2922433 C106.85674257 215.30201404 117.48234336 215.32832892 128.10807914 215.36874419 C136.32221121 215.39891388 144.53628358 215.41371302 152.75046998 215.41702431 C157.65579968 215.419374 162.56090676 215.42832371 167.46617699 215.45348549 C172.08321416 215.47678584 176.69988244 215.48099155 181.3169632 215.47072411 C183.00841563 215.4702291 184.69988634 215.47653921 186.39128304 215.49028015 C198.29563777 215.72346823 198.29563777 215.72346823 209 211 C214.13054461 205.73444106 215.24771495 200.92908287 215.28088379 193.70172119 C215.28682603 192.97692684 215.29276828 192.25213249 215.29889059 191.50537467 C215.31620353 189.08198649 215.31927579 186.65879662 215.32226562 184.23535156 C215.33152633 182.49554017 215.34157624 180.75573282 215.35235596 179.01593018 C215.37856623 174.29263361 215.39148642 169.56939386 215.40037727 164.84603596 C215.40624481 161.89323732 215.41445556 158.94045412 215.42338562 155.98766327 C215.45072551 146.74362901 215.47006374 137.49963013 215.4777894 128.25555825 C215.48674892 117.59455972 215.52184032 106.93407428 215.57979059 96.27323174 C215.62306102 88.02591413 215.6431999 79.77874069 215.64587164 71.5313108 C215.64796511 66.60854588 215.65972306 61.6862636 215.69551086 56.76361847 C215.72853714 52.13080944 215.73275339 47.49884417 215.71523285 42.86595917 C215.71369549 41.17007686 215.72233343 39.47414858 215.74214935 37.77838135 C216.02451492 25.95523506 216.02451492 25.95523506 210.77560425 15.65993118 C203.08144133 8.46701025 193.92152153 9.43011825 183.97070312 9.48242188 C182.23867709 9.47699644 180.50665568 9.46987141 178.77464294 9.46118164 C174.08659671 9.44299548 169.39890383 9.44999632 164.71085167 9.46269798 C159.79652351 9.47285008 154.8822249 9.46342617 149.96789551 9.45715332 C141.71633492 9.44988335 133.46491771 9.45944755 125.21337891 9.47851562 C115.68386167 9.5002831 106.1546868 9.49323127 96.62517786 9.47121 C88.43214829 9.45303748 80.23922157 9.45050674 72.04617834 9.46096468 C67.15772741 9.46718942 62.26943721 9.46806332 57.3809967 9.45481873 C52.78435869 9.44323387 48.18816057 9.45133396 43.5915699 9.47439575 C41.90819592 9.47966879 40.22478469 9.47819319 38.5414257 9.46934509 C25.27562102 9.18872882 25.27562102 9.18872882 14.16015625 15.81640625 Z " fill="#EFEFEF" transform="translate(0,0)"/>
<path d="M0 0 C0.33 0 0.66 0 1 0 C1.07012853 22.7920912 1.12300704 45.58416456 1.15543652 68.37634182 C1.17089533 78.95950874 1.19196604 89.54260857 1.22631836 100.12573242 C1.25625085 109.35162323 1.27558217 118.57746542 1.28226548 127.80340344 C1.28617121 132.6869792 1.29532973 137.57041593 1.31719017 142.45394707 C1.33761612 147.05447522 1.34382147 151.65480762 1.33932304 156.25537682 C1.34014552 157.93995478 1.34607468 159.62453959 1.35761642 161.30907822 C1.46389106 177.62621259 1.46389106 177.62621259 -2 185 C-4.81159369 186.89352228 -6.59941035 188 -10 188 C-10.33 188.99 -10.66 189.98 -11 191 C-15.50300914 191.87445233 -19.74755315 192.11825307 -24.33155823 192.10247803 C-25.04777861 192.1013656 -25.76399899 192.10025317 -26.50192302 192.09910703 C-28.89007678 192.09408782 -31.2781338 192.08173998 -33.66625977 192.06933594 C-35.38314702 192.06410012 -37.10003557 192.05927352 -38.81692505 192.05482483 C-43.47174576 192.04120308 -48.12651151 192.02075741 -52.78129697 191.99825954 C-55.68966861 191.98438329 -58.59804308 191.97175129 -61.50642204 191.9595108 C-70.60737735 191.92093009 -79.70830003 191.87833117 -88.8092075 191.82973552 C-99.313786 191.77365271 -109.81830988 191.73065428 -120.32299 191.69905448 C-128.44632706 191.67385402 -136.56956269 191.6372635 -144.69281238 191.59196877 C-149.54370183 191.56516273 -154.3944996 191.54316691 -159.24545479 191.53295135 C-163.80509865 191.52302066 -168.36445063 191.49896521 -172.92396927 191.46401787 C-174.59729694 191.45362159 -176.27066508 191.44830986 -177.94402504 191.44845009 C-180.22815606 191.44785885 -182.51143172 191.42895416 -184.79542542 191.40545654 C-186.07353372 191.39954876 -187.35164202 191.39364098 -188.66848087 191.38755417 C-192.21339558 190.97517578 -194.12948087 190.06518402 -197 188 C-196.505 187.01 -196.505 187.01 -196 186 C-194.98732418 186.48672652 -194.98732418 186.48672652 -193.95419025 186.9832859 C-190.39768769 188.2072918 -187.49550616 188.25765161 -183.73295593 188.26742554 C-182.65083138 188.27422221 -182.65083138 188.27422221 -181.54684573 188.28115618 C-179.13492472 188.29379364 -176.72322971 188.29218025 -174.3112793 188.29052734 C-172.57969879 188.29651303 -170.84812096 188.30331867 -169.11654663 188.31088257 C-164.41602797 188.32854632 -159.71558213 188.33323813 -155.01503348 188.33451414 C-152.07698355 188.33593616 -149.1389521 188.34020674 -146.20090675 188.34550858 C-135.94715831 188.36401056 -125.69346185 188.37217903 -115.43969727 188.37060547 C-105.88811166 188.36940424 -96.33675208 188.39050256 -86.78522366 188.4220928 C-78.57953476 188.44826282 -70.37391965 188.45897245 -62.16818935 188.45769465 C-57.26960956 188.4571852 -52.37123064 188.46285885 -47.47269249 188.48405075 C-42.86381894 188.50344518 -38.25533759 188.50354938 -33.64645004 188.48901749 C-31.95822768 188.48692974 -30.26998068 188.49162829 -28.58180046 188.5037384 C-16.66518026 188.76601196 -16.66518026 188.76601196 -6 184 C-4.2772413 181.72010345 -3.21534464 179.62514442 -2 177 C-1.67 176.34 -1.34 175.68 -1 175 C-0.89327817 172.70714779 -0.85327456 170.41112 -0.84178162 168.11581421 C-0.83684364 167.3994837 -0.83190566 166.68315318 -0.82681805 165.94511569 C-0.81139931 163.53291157 -0.80307063 161.12073415 -0.79467773 158.70849609 C-0.78510264 156.98408267 -0.77509279 155.25967162 -0.76467896 153.53526306 C-0.73758381 148.84339746 -0.71659925 144.15152176 -0.69667697 139.45962095 C-0.67484579 134.56018947 -0.6474431 129.6607893 -0.62062073 124.76138306 C-0.57065497 115.47894174 -0.52573057 106.19648309 -0.48259836 96.91400778 C-0.43325913 86.34824092 -0.37832874 75.78250548 -0.32291877 65.21676898 C-0.20903913 43.47787524 -0.10221315 21.73895152 0 0 Z " fill="#DFE1E3" transform="translate(215,26)"/>
<path d="M0 0 C0.95996514 2.49590936 0.97828103 4.25519792 0.75 6.9375 C-2.00656872 11.76149526 -6.76744866 13.49320513 -12 15 C-14.3515625 14.62890625 -14.3515625 14.62890625 -16 14 C-15.40832031 13.76925781 -14.81664062 13.53851563 -14.20703125 13.30078125 C-8.14846836 10.80026508 -3.57947587 8.38459116 -0.6875 2.1875 C-0.460625 1.465625 -0.23375 0.74375 0 0 Z " fill="#D8CDCE" transform="translate(214,201)"/>
<path d="M0 0 C0 3 0 3 -1.3125 4.38671875 C-2.875 5.59114583 -4.4375 6.79557292 -6 8 C-6.66 7.67 -7.32 7.34 -8 7 C-5.36 4.69 -2.72 2.38 0 0 Z " fill="#D63433" transform="translate(94,119)"/>
</svg>
