<?xml version="1.0" encoding="UTF-8"?>
<svg version="1.1" xmlns="http://www.w3.org/2000/svg" width="225" height="225">
<path d="M0 0 C74.25 0 148.5 0 225 0 C225 74.25 225 148.5 225 225 C150.75 225 76.5 225 0 225 C0 150.75 0 76.5 0 0 Z " fill="#101113" transform="translate(0,0)"/>
<path d="M0 0 C74.25 0 148.5 0 225 0 C225 2.31 225 4.62 225 7 C150.75 7 76.5 7 0 7 C0 4.69 0 2.38 0 0 Z " fill="#121315" transform="translate(0,0)"/>
<path d="M0 0 C3.5 0.5625 3.5 0.5625 5.68540955 2.70568848 C7.81484657 6.05818062 8.01108787 7.89132004 8.03344727 11.83398438 C8.05720177 13.70117126 8.05720177 13.70117126 8.08143616 15.6060791 C8.0775947 16.9561399 8.07255566 18.30619774 8.06640625 19.65625 C8.0716448 21.04960546 8.07792214 22.44295736 8.08518982 23.83630371 C8.09558029 26.75155365 8.09105223 29.66631504 8.07641602 32.58154297 C8.05922089 36.31105376 8.08273641 40.03902491 8.11790562 43.76836395 C8.13990151 46.64412577 8.13843327 49.51952027 8.1301403 52.39533997 C8.12932212 53.77002146 8.13616029 55.14473029 8.15091133 56.51933289 C8.26068347 68.59876186 8.26068347 68.59876186 5.15209961 71.90820312 C1.89345613 73.94084312 0.27095444 74.28459766 -3.5 73.5625 C-6.35251636 71.39078054 -7.38721956 70.21123824 -8.00793457 66.64074707 C-8.01111694 65.50697632 -8.01429932 64.37320557 -8.01757812 63.20507812 C-8.03018677 61.91694214 -8.04279541 60.62880615 -8.05578613 59.30163574 C-8.04862631 57.89900159 -8.04042233 56.49637244 -8.03125 55.09375 C-8.03394555 53.65173074 -8.03782851 52.20971325 -8.04284668 50.7677002 C-8.04873889 47.74811467 -8.04018848 44.72900302 -8.02148438 41.70947266 C-7.99869405 37.84213798 -8.01181875 33.97591364 -8.03577423 30.10861969 C-8.05024026 27.13169005 -8.04562274 24.15502294 -8.03526306 21.17808533 C-8.03259795 19.7523536 -8.03585801 18.3265979 -8.04518127 16.90089417 C-8.05535798 14.90724148 -8.03709189 12.91350504 -8.01757812 10.91992188 C-8.01439575 9.78615112 -8.01121338 8.65238037 -8.00793457 7.48425293 C-7.14144006 2.49998325 -4.87619064 0.7836735 0 0 Z " fill="#F7F7F8" transform="translate(98.5,94.4375)"/>
<path d="M0 0 C2.89016772 2.15083373 3.88518983 3.33958627 4.50793457 6.92175293 C4.51111694 8.05552368 4.51429932 9.18929443 4.51757812 10.35742188 C4.53018677 11.64555786 4.54279541 12.93369385 4.55578613 14.26086426 C4.54862631 15.66349841 4.54042233 17.06612756 4.53125 18.46875 C4.53394555 19.91076926 4.53782851 21.35278675 4.54284668 22.7947998 C4.54873889 25.81438533 4.54018848 28.83349698 4.52148438 31.85302734 C4.49869405 35.72036202 4.51181875 39.58658636 4.53577423 43.45388031 C4.55024026 46.43080995 4.54562274 49.40747706 4.53526306 52.38441467 C4.53259795 53.8101464 4.53585801 55.2359021 4.54518127 56.66160583 C4.55535798 58.65525852 4.53709189 60.64899496 4.51757812 62.64257812 C4.51439575 63.77634888 4.51121338 64.91011963 4.50793457 66.07824707 C3.88710339 69.64940649 2.85821944 70.83306331 0 73 C-3 73.5 -3 73.5 -6 73 C-8.88868384 70.8199897 -9.8918779 69.63993392 -10.50120544 66.03355408 C-10.50137161 64.87900223 -10.50153778 63.72445038 -10.50170898 62.53491211 C-10.51108994 61.22352768 -10.52047089 59.91214325 -10.53013611 58.5610199 C-10.5196589 57.1331212 -10.50829004 55.7052288 -10.49609375 54.27734375 C-10.49624875 52.81051054 -10.4977379 51.34367692 -10.50050354 49.87684631 C-10.5018869 46.80597786 -10.48933938 43.73557684 -10.46655273 40.66479492 C-10.43814259 36.72800404 -10.44091273 32.7919882 -10.45364285 28.85513973 C-10.46059576 25.82765578 -10.45281573 22.80035115 -10.44038582 19.77289009 C-10.43586927 18.3212204 -10.43553631 16.86953147 -10.43945122 15.41786003 C-10.44235992 13.39043889 -10.42370901 11.3630213 -10.40405273 9.33569336 C-10.39864975 8.1819371 -10.39324677 7.02818085 -10.38768005 5.83946228 C-10 3 -10 3 -8.68959045 1.13136292 C-5.79455192 -0.80717741 -3.36042864 -0.41268422 0 0 Z " fill="#FBFBFC" transform="translate(160,95)"/>
<path d="M0 0 C1.68164062 1.05688477 1.68164062 1.05688477 3 3 C3.32260901 5.75174235 3.46801949 8.27302074 3.46875 11.02734375 C3.47636353 11.81266983 3.48397705 12.59799591 3.49182129 13.40711975 C3.50262089 15.0671979 3.50547593 16.72734399 3.50097656 18.38745117 C3.50000461 20.92547134 3.5416129 23.46046373 3.5859375 25.99804688 C3.59114497 27.61197287 3.59383269 29.22590936 3.59375 30.83984375 C3.6183429 31.97594337 3.6183429 31.97594337 3.64343262 33.13499451 C3.59340283 36.95634428 3.3158558 38.65687727 0.68945312 41.51000977 C-2 43 -2 43 -5.625 43 C-9 42 -9 42 -10.68164062 40.43164062 C-12.51832939 37.04397023 -12.46771559 33.85508651 -12.46875 30.09375 C-12.47636353 29.33203491 -12.48397705 28.57031982 -12.49182129 27.78552246 C-12.50260446 26.17850008 -12.50548262 24.57140771 -12.50097656 22.96435547 C-12.50000301 20.50760153 -12.54166204 18.0539603 -12.5859375 15.59765625 C-12.59114401 14.03386067 -12.5938327 12.47005425 -12.59375 10.90625 C-12.61014526 10.17386108 -12.62654053 9.44147217 -12.64343262 8.68688965 C-12.59245454 4.92047066 -12.28352227 3.30652999 -9.68945312 0.50195312 C-6.02164963 -1.54636996 -3.98718042 -1.10755012 0 0 Z " fill="#F4F5F5" transform="translate(132,125)"/>
<path d="M0 0 C2.30275556 1.8670991 3.67823871 3.35647741 5 6 C5.2356996 10.51293316 5.22842295 15.02973456 5.24023438 19.5480957 C5.24991811 21.79351145 5.28092957 24.03800312 5.3125 26.28320312 C5.31903252 27.71614041 5.32428202 29.14908423 5.328125 30.58203125 C5.34214355 32.53459839 5.34214355 32.53459839 5.35644531 34.52661133 C4.97854485 38.20907014 4.23033247 40.08244549 2 43 C-0.77100394 44.38550197 -2.9334706 44.1877467 -6 44 C-9 42 -9 42 -10 39 C-10.13245127 36.38842641 -10.21211207 33.80427454 -10.23828125 31.19140625 C-10.246353 30.42827621 -10.25442474 29.66514618 -10.26274109 28.87889099 C-10.27655867 27.26588194 -10.28729121 25.65284393 -10.29516602 24.03979492 C-10.31241396 21.57479685 -10.35632197 19.11112857 -10.40039062 16.64648438 C-10.41051521 15.07813484 -10.41903205 13.50977394 -10.42578125 11.94140625 C-10.44328934 11.20588028 -10.46079742 10.47035431 -10.47883606 9.71253967 C-10.46416704 6.24911112 -10.25834753 4.34628103 -8.16088867 1.53491211 C-5.21250957 -0.55936644 -3.54068938 -0.5901149 0 0 Z " fill="#F4F4F5" transform="translate(72,124)"/>
<path d="M0 0 C3.42641601 1.16643949 4.94029949 1.96425523 6.9375 5 C6.87707505 8.44422213 6.53843625 10.90417507 4.875 13.9375 C1.67686863 15.69131398 -1.51575707 15.6502362 -5.0625 15 C-7.96710477 12.73077752 -8.04106495 11.15004537 -8.5625 7.5 C-8.0625 4 -8.0625 4 -5.9375 1.5 C-3.0625 0 -3.0625 0 0 0 Z " fill="#C66F9B" transform="translate(99.0625,65)"/>
<path d="M0 0 C3.30729372 2.49884415 4.80598648 3.94370415 5.5625 8.0625 C5 11 5 11 3.4375 13.375 C0.04129157 15.63913895 -2.00099302 15.64269755 -6 15 C-8.5 12.9375 -8.5 12.9375 -10 10 C-9.75 6.1875 -9.75 6.1875 -9 3 C-8.34 3 -7.68 3 -7 3 C-7 2.34 -7 1.68 -7 1 C-4.35955695 -0.32022153 -2.93650531 -0.40974493 0 0 Z " fill="#ACA2C2" transform="translate(130,65)"/>
<path d="M0 0 C2.4375 1.625 2.4375 1.625 4 4 C4.60024477 7.60146865 4.45562482 9.27859404 2.5 12.375 C-1.26897129 14.82483134 -3.54334931 14.5659239 -8 14 C-10.6923481 11.81246717 -10.93936827 10.41576045 -11.4375 7 C-11 4 -11 4 -9.4375 1.625 C-6.06489221 -0.62340519 -3.97487617 -0.56783945 0 0 Z " fill="#AEA4C8" transform="translate(131,95)"/>
<path d="M0 0 C2.375 2.25 2.375 2.25 4 5 C3.80654378 7.77287249 3.23457223 9.53085554 2 12 C1.34 12 0.68 12 0 12 C0 12.66 0 13.32 0 14 C-6.25 14.48076923 -6.25 14.48076923 -9.4375 12.4375 C-11.58016848 9.09493717 -11.49573337 6.89504791 -11 3 C-8.15930249 -1.0581393 -4.52155508 -1.54394564 0 0 Z " fill="#F43473" transform="translate(73,66)"/>
<path d="M0 0 C3.55486035 0.69363129 5.14390437 1.80499344 7.5625 4.5 C8.19984462 8.46569988 8.18249672 10.53280512 6 13.9375 C2.63490983 16.09460908 0.48045996 16.06988508 -3.4375 15.5 C-6.29326764 13.19696158 -6.41931881 11.64544949 -6.875 8 C-6.4375 4.5 -6.4375 4.5 -4.75 2.0625 C-2.4375 0.5 -2.4375 0.5 0 0 Z " fill="#8BD4EF" transform="translate(156.4375,64.5)"/>
<path d="M0 0 C2.375 1 2.375 1 4 3 C4.66300779 6.57577233 4.65930485 9.75895557 2.9375 13 C-0.14126742 14.58904125 -2.60155579 14.35773097 -6 14 C-8.4375 13 -8.4375 13 -10 11 C-10.5609375 8.22422681 -10.56659452 5.77515685 -10 3 C-7.19663749 -0.45029232 -4.26211439 -0.5327643 0 0 Z " fill="#EF3E79" transform="translate(72,95)"/>
<path d="M0 0 C0.33 0 0.66 0 1 0 C1.07406517 4.5206339 1.12856045 9.040916 1.16479492 13.56201172 C1.17989711 15.10048574 1.20038046 16.63891661 1.22631836 18.17724609 C1.26264074 20.38650141 1.27971119 22.59518848 1.29296875 24.8046875 C1.30845261 25.49432587 1.32393646 26.18396423 1.33988953 26.89450073 C1.34057617 28.83544922 1.34057617 28.83544922 1 32 C0.01 32.66 -0.98 33.32 -2 34 C-2.05823729 29.4583875 -2.09367675 24.9168716 -2.125 20.375 C-2.15013672 18.44720703 -2.15013672 18.44720703 -2.17578125 16.48046875 C-2.18222656 15.23652344 -2.18867187 13.99257812 -2.1953125 12.7109375 C-2.21102295 10.99849854 -2.21102295 10.99849854 -2.22705078 9.25146484 C-1.99052625 5.86433183 -1.2095701 3.15994958 0 0 Z " fill="#090A0C" transform="translate(60,130)"/>
<path d="M0 0 C0 0.66 0 1.32 0 2 C-1.27875 2.12375 -2.5575 2.2475 -3.875 2.375 C-7.34790936 2.69042399 -7.34790936 2.69042399 -10 5 C-10.52311681 9.65983757 -10.52311681 9.65983757 -8.75 13.8125 C-6.89667355 15.07011437 -5.0431838 16.08409002 -3 17 C-5.64 16.67 -8.28 16.34 -11 16 C-11.33 15.01 -11.66 14.02 -12 13 C-12.99 13.99 -13.98 14.98 -15 16 C-16.20577428 11.05632546 -15.6290678 7.79137588 -14 3 C-13.34 3 -12.68 3 -12 3 C-11.67 2.34 -11.34 1.68 -11 1 C-7.43545584 -0.37097852 -3.76644005 -0.07243154 0 0 Z " fill="#270C16" transform="translate(73,64)"/>
<path d="M0 0 C-3 2 -3 2 -6 2 C-6.33 3.32 -6.66 4.64 -7 6 C-7.66 6 -8.32 6 -9 6 C-8.67 7.32 -8.34 8.64 -8 10 C-7.34 10 -6.68 10 -6 10 C-5.34 8.68 -4.68 7.36 -4 6 C-3.731875 6.5775 -3.46375 7.155 -3.1875 7.75 C-1.98383063 10.0306367 -0.55522172 11.949935 1 14 C1 14.33 1 14.66 1 15 C-2.25 15.3125 -2.25 15.3125 -6 15 C-8.5 12.9375 -8.5 12.9375 -10 10 C-9.75 6.1875 -9.75 6.1875 -9 3 C-8.34 3 -7.68 3 -7 3 C-7 2.34 -7 1.68 -7 1 C-4.53721199 -0.231394 -2.7204945 -0.07159196 0 0 Z " fill="#9C91AD" transform="translate(130,65)"/>
<path d="M0 0 C0.33 0 0.66 0 1 0 C1 19.47 1 38.94 1 59 C1.99 59.33 2.98 59.66 4 60 C3.34 60.66 2.68 61.32 2 62 C0 60 0 60 -0.24050903 57.48165894 C-0.23606781 56.4202066 -0.23162659 55.35875427 -0.22705078 54.26513672 C-0.22689972 53.06404266 -0.22674866 51.86294861 -0.22659302 50.62545776 C-0.21627045 49.32335358 -0.20594788 48.02124939 -0.1953125 46.6796875 C-0.19158276 45.33733327 -0.18873561 43.99497633 -0.18673706 42.65261841 C-0.17909744 39.117986 -0.1594463 35.58351772 -0.1373291 32.0489502 C-0.11687765 28.4428123 -0.10773685 24.83664791 -0.09765625 21.23046875 C-0.0762006 14.15357865 -0.04206079 7.07680003 0 0 Z " fill="#E7E7E9" transform="translate(91,104)"/>
<path d="M0 0 C2.375 2.25 2.375 2.25 4 5 C3.80654378 7.77287249 3.23457223 9.53085554 2 12 C1.34 12 0.68 12 0 12 C0 12.66 0 13.32 0 14 C-2.31 14 -4.62 14 -7 14 C-7 13.67 -7 13.34 -7 13 C-5.02 12.34 -3.04 11.68 -1 11 C-0.29925156 7.846632 0 5.27275026 0 2 C-3.3 2.33 -6.6 2.66 -10 3 C-7.14365694 -1.28451459 -4.70719096 -1.6073335 0 0 Z " fill="#BF4D75" transform="translate(73,66)"/>
<path d="M0 0 C3.470396 0.15088678 5.53844019 0.69229346 8.4375 2.625 C10 5 10 5 9.9375 8.625 C9 12 9 12 6 14 C6 11.36 6 8.72 6 6 C3.36 4.68 0.72 3.36 -2 2 C-1.34 1.34 -0.68 0.68 0 0 Z " fill="#A7748F" transform="translate(96,65)"/>
<path d="M0 0 C1.8125 1.5 1.8125 1.5 3 3 C2.34 3.66 1.68 4.32 1 5 C-1 4.625 -1 4.625 -3 4 C-3.66 4 -4.32 4 -5 4 C-5.33 5.98 -5.66 7.96 -6 10 C-6.99 10.33 -7.98 10.66 -9 11 C-9.48461538 4.7 -9.48461538 4.7 -7.3125 1.5625 C-4.54994945 -0.30408821 -3.26764255 -0.58649994 0 0 Z " fill="#8DC0D1" transform="translate(159,65)"/>
<path d="M0 0 C1.65 0 3.3 0 5 0 C6.33517241 7.40413793 6.33517241 7.40413793 4.875 10 C2.46618158 11.28470316 0.69027121 11.2181301 -2 11 C-0.68 10.67 0.64 10.34 2 10 C2.33 8.35 2.66 6.7 3 5 C1.35 5 -0.3 5 -2 5 C-2 3 -2 3 0 1 C0 0.67 0 0.34 0 0 Z " fill="#F53D7A" transform="translate(68,68)"/>
<path d="M0 0 C3.14711179 -0.2145758 5.44617664 -0.23318878 8.375 1 C10.57713531 3.71032039 10.51345108 5.70883166 10.3125 9.125 C10 11 10 11 8.9375 13 C5.94120155 14.54647662 3.30610227 14.2404438 0 14 C-0.66 13.67 -1.32 13.34 -2 13 C-2 12.34 -2 11.68 -2 11 C0.97851562 11.04882812 0.97851562 11.04882812 3.95703125 11.09765625 C6.20305461 11.08263217 6.20305461 11.08263217 9 10 C8.54086322 6.51400668 8.54086322 6.51400668 7 3 C3.48599332 1.45913678 3.48599332 1.45913678 0 1 C0 0.67 0 0.34 0 0 Z " fill="#BF5277" transform="translate(66,95)"/>
<path d="M0 0 C0.66 0 1.32 0 2 0 C2 1.32 2 2.64 2 4 C2.66 4 3.32 4 4 4 C4 4.66 4 5.32 4 6 C3.34 6 2.68 6 2 6 C1.67 6.66 1.34 7.32 1 8 C1.66 8 2.32 8 3 8 C3.33 8.99 3.66 9.98 4 11 C3.67 11.66 3.34 12.32 3 13 C2.34 13 1.68 13 1 13 C-1.36499307 10.63500693 -1.96969488 9.29699015 -2.3125 5.9375 C-2 3 -2 3 0 0 Z " fill="#9B8EA9" transform="translate(122,96)"/>
<path d="M0 0 C0.598125 0.20625 1.19625 0.4125 1.8125 0.625 C1.3175 0.975625 0.8225 1.32625 0.3125 1.6875 C-1.9454216 4.60398206 -1.44346941 7.04142819 -1.1875 10.625 C-0.8575 11.615 -0.5275 12.605 -0.1875 13.625 C-1.1775 13.955 -2.1675 14.285 -3.1875 14.625 C-4.16358217 11.69675348 -4.26976668 9.66886724 -4.1875 6.625 C-4.8475 6.625 -5.5075 6.625 -6.1875 6.625 C-5.875 4.25 -5.875 4.25 -5.1875 1.625 C-2.1875 -0.375 -2.1875 -0.375 0 0 Z " fill="#1B232F" transform="translate(152.1875,65.375)"/>
<path d="M0 0 C0.66 0.33 1.32 0.66 2 1 C2.48076923 7.25 2.48076923 7.25 0.4375 10.4375 C-2.89187945 12.57171759 -5.12467931 12.50235639 -9 12 C-9.66 11.01 -10.32 10.02 -11 9 C-10.34 8.67 -9.68 8.34 -9 8 C-8.67 8.66 -8.34 9.32 -8 10 C-6.68 10 -5.36 10 -4 10 C-4 9.01 -4 8.02 -4 7 C-2.68 6.34 -1.36 5.68 0 5 C0 3.35 0 1.7 0 0 Z " fill="#88C0D7" transform="translate(162,68)"/>
<path d="M0 0 C0.66 0 1.32 0 2 0 C1.67 2.97 1.34 5.94 1 9 C2.65 9.33 4.3 9.66 6 10 C2.94736336 10.98120464 1.05263664 10.98120464 -2 10 C-2.1953125 3.9453125 -2.1953125 3.9453125 -2 2 C-1.34 1.34 -0.68 0.68 0 0 Z " fill="#D13B6D" transform="translate(64,96)"/>
<path d="M0 0 C3 1 3 1 4 3 C4.25 6 4.25 6 4 9 C3.01 9.66 2.02 10.32 1 11 C0.34 10.67 -0.32 10.34 -1 10 C-0.67 6.7 -0.34 3.4 0 0 Z " fill="#A29FBB" transform="translate(131,67)"/>
<path d="M0 0 C0.66 -0.33 1.32 -0.66 2 -1 C2.33 1.31 2.66 3.62 3 6 C2.01 6.33 1.02 6.66 0 7 C0 6.34 0 5.68 0 5 C-1.65 5 -3.3 5 -5 5 C-4 2 -4 2 -3 1 C-3.99 0.67 -4.98 0.34 -6 0 C-3.4791665 -1.26041675 -2.64903564 -0.66225891 0 0 Z " fill="#8EDCF9" transform="translate(160,69)"/>
<path d="M0 0 C0.33 0.99 0.66 1.98 1 3 C-0.175625 2.7525 -1.35125 2.505 -2.5625 2.25 C-7.51865367 1.58741261 -9.96614253 3.22672299 -14 6 C-13.67 4.35 -13.34 2.7 -13 1 C-8.23947038 -0.97387813 -5.03511899 -1.0070238 0 0 Z " fill="#220C1D" transform="translate(103,64)"/>
<path d="M0 0 C0.433125 0.9590625 0.433125 0.9590625 0.875 1.9375 C1.82823451 4.15206079 1.82823451 4.15206079 4 5 C3.67 6.32 3.34 7.64 3 9 C3.66 9 4.32 9 5 9 C5 9.66 5 10.32 5 11 C1.99390037 9.99796679 0.93823179 9.39971554 -1 7 C-1 6.01 -1 5.02 -1 4 C-1.99 4.495 -1.99 4.495 -3 5 C-3 4.01 -3 3.02 -3 2 C-2.01 1.34 -1.02 0.68 0 0 Z " fill="#B1A5D1" transform="translate(127,68)"/>
<path d="M0 0 C2.62655933 0.35494045 4.57968261 0.72461964 6.8125 2.1875 C8.51995571 4.79361661 8.20267097 6.9599355 8 10 C6.33333333 8.33333333 4.66666667 6.66666667 3 5 C2.401875 4.443125 1.80375 3.88625 1.1875 3.3125 C0 2 0 2 0 0 Z " fill="#9F9CB1" transform="translate(127,95)"/>
<path d="M0 0 C0.66 0 1.32 0 2 0 C1.67 1.65 1.34 3.3 1 5 C-2.81489674 6.46726798 -5.29011622 5.43336419 -9 4 C-9 3.67 -9 3.34 -9 3 C-7.88625 2.87625 -6.7725 2.7525 -5.625 2.625 C-1.96896323 2.3534187 -1.96896323 2.3534187 0 0 Z " fill="#33101B" transform="translate(75,106)"/>
<path d="M0 0 C1.98 0.495 1.98 0.495 4 1 C3.74438677 3.3431213 3.40729228 5.67843403 3 8 C2.01 8.495 2.01 8.495 1 9 C0.34 8.67 -0.32 8.34 -1 8 C-0.67 5.36 -0.34 2.72 0 0 Z " fill="#FB3374" transform="translate(66,97)"/>
<path d="M0 0 C0.66 0 1.32 0 2 0 C2.20625 1.27875 2.4125 2.5575 2.625 3.875 C3.08483533 6.07813968 3.08483533 6.07813968 4 8 C6.99428144 9.61147442 6.99428144 9.61147442 10 10 C10 10.33 10 10.66 10 11 C7.36 10.67 4.72 10.34 2 10 C1.67 9.01 1.34 8.02 1 7 C0.34 6.67 -0.32 6.34 -1 6 C-0.67 4.02 -0.34 2.04 0 0 Z " fill="#390E1D" transform="translate(60,70)"/>
<path d="M0 0 C0 0.66 0 1.32 0 2 C0.66 2 1.32 2 2 2 C2.625 4.8125 2.625 4.8125 3 8 C2.01 9.485 2.01 9.485 1 11 C0.70996094 10.16855469 0.70996094 10.16855469 0.4140625 9.3203125 C0.15367187 8.59585938 -0.10671875 7.87140625 -0.375 7.125 C-0.75785156 6.04605469 -0.75785156 6.04605469 -1.1484375 4.9453125 C-1.93877783 2.81842006 -1.93877783 2.81842006 -4 1 C-2 0 -2 0 0 0 Z " fill="#0E232B" transform="translate(164,65)"/>
<path d="M0 0 C1.90401138 1.90401138 2.93520439 3.33425686 3.19921875 6.046875 C3.1886578 8.03233273 3.09915043 10.0169914 3 12 C2.01 12.33 1.02 12.66 0 13 C0.226875 11.948125 0.45375 10.89625 0.6875 9.8125 C1.03180444 5.61198583 0.48772258 4.2837938 -2 1 C-1.34 0.67 -0.68 0.34 0 0 Z " fill="#330B1A" transform="translate(75,65)"/>
<path d="M0 0 C2 1 2 1 4 4 C3.01 4.66 2.02 5.32 1 6 C-2.1875 5.125 -2.1875 5.125 -5 4 C-4.67 3.34 -4.34 2.68 -4 2 C-2.68 2 -1.36 2 0 2 C0 1.34 0 0.68 0 0 Z " fill="#1B1C1E" transform="translate(131,120)"/>
<path d="M0 0 C-0.99 0.66 -1.98 1.32 -3 2 C-3.73606499 5.56769552 -3.73606499 5.56769552 -4 9 C-4.66 9 -5.32 9 -6 9 C-6 6.03 -6 3.06 -6 0 C-3 -1 -3 -1 0 0 Z " fill="#3D081B" transform="translate(66,96)"/>
<path d="M0 0 C0.33 0.66 0.66 1.32 1 2 C1.66 2 2.32 2 3 2 C2.67 3.65 2.34 5.3 2 7 C2.99 7.33 3.98 7.66 5 8 C4.67 8.66 4.34 9.32 4 10 C3.01 9.67 2.02 9.34 1 9 C-0.4783226 6.04335481 -0.06032783 3.25770263 0 0 Z " fill="#CE3A6B" transform="translate(62,69)"/>
<path d="M0 0 C0.33 0.66 0.66 1.32 1 2 C-2.63 2.33 -6.26 2.66 -10 3 C-7.0825138 -1.3762293 -4.79894123 -1.3891672 0 0 Z " fill="#C2446D" transform="translate(73,66)"/>
<path d="M0 0 C-0.33 1.32 -0.66 2.64 -1 4 C-3.91517292 2.92598892 -5.77810176 2.22189824 -8 0 C-5.13822943 -1.43088528 -3.06624227 -0.59991697 0 0 Z " fill="#AC6991" transform="translate(102,66)"/>
<path d="M0 0 C2.97 0 5.94 0 9 0 C9 0.99 9 1.98 9 3 C6.03 2.67 3.06 2.34 0 2 C0 1.34 0 0.68 0 0 Z " fill="#05131A" transform="translate(153,63)"/>
<path d="M0 0 C1.65 0 3.3 0 5 0 C4.67 1.98 4.34 3.96 4 6 C2.68 6 1.36 6 0 6 C-0.33 5.01 -0.66 4.02 -1 3 C-0.34 3 0.32 3 1 3 C0.67 2.01 0.34 1.02 0 0 Z " fill="#202123" transform="translate(96,89)"/>
<path d="M0 0 C0 0.99 0 1.98 0 3 C0.66 3.33 1.32 3.66 2 4 C-0.64 4 -3.28 4 -6 4 C-6 3.34 -6 2.68 -6 2 C-3 0 -3 0 0 0 Z " fill="#B36B94" transform="translate(100,76)"/>
<path d="M0 0 C0.99 0 1.98 0 3 0 C3.66666667 1.33333333 4.33333333 2.66666667 5 4 C4.01 4 3.02 4 2 4 C2 4.66 2 5.32 2 6 C1.34 6 0.68 6 0 6 C-1.125 2.25 -1.125 2.25 0 0 Z " fill="#D9629B" transform="translate(94,70)"/>
<path d="M0 0 C1.0625 1.8125 1.0625 1.8125 2 4 C1.67 4.99 1.34 5.98 1 7 C1.66 7 2.32 7 3 7 C2.67 7.99 2.34 8.98 2 10 C1.34 9.67 0.68 9.34 0 9 C-0.99444068 5.65506316 -1.10348268 3.31044803 0 0 Z " fill="#15080F" transform="translate(77,100)"/>
<path d="M0 0 C1.98 0.495 1.98 0.495 4 1 C2.66666667 3.66666667 1.33333333 6.33333333 0 9 C-1.125 2.25 -1.125 2.25 0 0 Z " fill="#2E141F" transform="translate(76,95)"/>
<path d="M0 0 C0 0.66 0 1.32 0 2 C-2.3431213 1.74438677 -4.67843403 1.40729228 -7 1 C-7.33 0.34 -7.66 -0.32 -8 -1 C-4.59745511 -2.2151946 -3.06748874 -1.86240388 0 0 Z " fill="#360F1E" transform="translate(74,94)"/>
<path d="M0 0 C0.33 0.66 0.66 1.32 1 2 C1.66 2 2.32 2 3 2 C2.67 3.65 2.34 5.3 2 7 C1.34 6.67 0.68 6.34 0 6 C-0.6875 3.5 -0.6875 3.5 -1 1 C-0.67 0.67 -0.34 0.34 0 0 Z " fill="#071814" transform="translate(57,102)"/>
<path d="M0 0 C0.33 0.99 0.66 1.98 1 3 C-0.1875 4.5 -0.1875 4.5 -2 6 C-4.6875 6.1875 -4.6875 6.1875 -7 6 C-5.68 5.67 -4.36 5.34 -3 5 C-2.814375 4.0409375 -2.814375 4.0409375 -2.625 3.0625 C-2.41875 2.381875 -2.2125 1.70125 -2 1 C-1.34 0.67 -0.68 0.34 0 0 Z " fill="#E94078" transform="translate(73,73)"/>
</svg>
