<?xml version="1.0" encoding="UTF-8"?>
<svg version="1.1" xmlns="http://www.w3.org/2000/svg" width="225" height="225">
<path d="M0 0 C74.25 0 148.5 0 225 0 C225 74.25 225 148.5 225 225 C150.75 225 76.5 225 0 225 C0 150.75 0 76.5 0 0 Z " fill="#013F7B" transform="translate(0,0)"/>
<path d="M0 0 C74.25 0 148.5 0 225 0 C225 74.25 225 148.5 225 225 C150.75 225 76.5 225 0 225 C0 150.75 0 76.5 0 0 Z M32.11328125 39.64453125 C20.66538552 52.40438546 12.55279568 67.53851915 8 84 C7.68160156 85.02351563 7.36320313 86.04703125 7.03515625 87.1015625 C0.63110303 110.8880459 4.39318016 139.44447745 16 161 C19.16428428 158.31723724 22.31146446 155.64485549 25.33984375 152.80859375 C34.24020619 144.49877669 43.53479936 137.95574846 55.875 136.5625 C67.70503133 137.12583483 77.02938694 144.499721 85.56787109 151.96264648 C97.88892805 162.70689045 110.99880434 171.81690407 127.9140625 171.34375 C135.10981482 170.54219784 139.32799858 167.2280126 143.87109375 161.78125 C146.7036874 157.31182887 146.6311618 151.92580935 145.5390625 146.86328125 C142.26270817 135.8200399 135.83807242 128.83783967 126 123 C117.47532755 118.48641027 108.1330266 116.50484584 98.8359375 114.17578125 C88.74464335 111.52628875 78.93298259 108.19352488 72 100 C71.29875 99.21625 70.5975 98.4325 69.875 97.625 C63.67265849 88.94172189 63.2030417 79.32725128 64 69 C66.35451706 58.80135815 71.14181137 51.39569474 79.87890625 45.64453125 C91.51660429 39.51252765 105.15046222 36.77671215 118.09765625 39.69921875 C132.3610905 44.34905908 140.49561229 55.50729516 148.34570312 67.60205078 C152.22309016 73.50379453 156.27717107 79.22953364 163 82 C169.4494865 82.94954199 175.04067792 81.36682295 181 79 C180.01 75.04 180.01 75.04 179 71 C189.23 71 199.46 71 210 71 C210.99 75.455 210.99 75.455 212 80 C209.81675835 82.90570768 208.19903989 84.6156372 205.4375 86.8125 C204.48520508 87.63137695 204.48520508 87.63137695 203.51367188 88.46679688 C201.70187473 90.01308814 199.85603604 91.50738361 198 93 C197.08347656 93.78761719 196.16695312 94.57523437 195.22265625 95.38671875 C193 97 193 97 190 97 C189.34 96.01 188.68 95.02 188 94 C187.29617187 94.2165625 186.59234375 94.433125 185.8671875 94.65625 C174.06843618 97.98331303 162.07664866 99.06176352 151 93 C142.16516939 87.43463796 136.96557667 78.50554463 131.44042969 69.89501953 C127.12637066 63.25330545 123.07899859 57.63159944 115.5625 54.625 C105.34086842 52.8317313 94.81093458 54.30919593 86 60 C81.55514115 63.76846729 79.35472607 67.00957677 78.6640625 72.83203125 C78.55961775 80.80116545 79.51018277 86.29867869 85.0625 92.1875 C93.11845389 97.15819495 101.3080856 99.71217488 110.4375 102 C123.68626023 105.33694327 134.30001724 109.25009334 145 118 C145.65871094 118.52078125 146.31742188 119.0415625 146.99609375 119.578125 C154.64394692 126.3232249 159.95019289 137.92185175 161 148 C161.08121094 148.70125 161.16242188 149.4025 161.24609375 150.125 C161.77652607 159.1262757 158.48106421 168.3371121 152.7578125 175.25390625 C144.95013869 183.0095289 136.11244503 186.25594784 125.25 186.4375 C106.81710473 186.26190783 91.53096959 176.68329236 78 165 C75.56225568 162.99452813 73.09727248 161.02515858 70.625 159.0625 C70.04161865 158.58965576 69.4582373 158.11681152 68.85717773 157.62963867 C64.34913383 154.04985529 61.11276525 152 55.3125 152 C43.85983022 153.9797366 33.39613375 164.50020853 26 173 C25.67 173.99 25.34 174.98 25 176 C31.676995 186.92781464 42.23357651 196.26715112 53 203 C54.04929688 203.65871094 55.09859375 204.31742188 56.1796875 204.99609375 C73.99129391 215.83693757 92.0540672 220.2048876 112.8125 220.3125 C114.35055298 220.32095947 114.35055298 220.32095947 115.91967773 220.32958984 C126.9447471 220.22501962 137.14894251 218.31932851 147.5625 214.75 C148.47435059 214.4398999 149.38620117 214.1297998 150.32568359 213.81030273 C177.01831173 204.48433627 198.37963454 183.54968744 210.82421875 158.421875 C222.14371483 133.4448509 223.35931078 104.94738392 215.45898438 78.83984375 C215 77 215 77 215 74 C217.76223278 71.23776722 220.20706617 71.42143709 224 71 C224 70.34 224 69.68 224 69 C222.35 69 220.7 69 219 69 C219 67.02 219 65.04 219 63 C218.34 63 217.68 63 217 63 C217 65.31 217 67.62 217 70 C214.525 70.99 214.525 70.99 212 72 C211.690625 70.824375 211.38125 69.64875 211.0625 68.4375 C206.57573557 55.20569935 197.82587813 44.63502048 188 35 C186.71222656 33.7315625 186.71222656 33.7315625 185.3984375 32.4375 C162.47667127 10.8983165 134.25358626 4.09365135 103.70458984 4.890625 C76.1242707 6.00598725 51.00499358 20.14882101 32.11328125 39.64453125 Z " fill="#FBFCFC" transform="translate(0,0)"/>
<path d="M0 0 C4.02413914 3.54167083 6.68000309 7.65887147 9.49609375 12.1796875 C16.73556548 23.34854468 23.26489268 32.78535796 36.5078125 37.03515625 C46.05640834 38.81779614 55.46649345 37.24648759 64.62109375 34.4296875 C65.28109375 35.4196875 65.94109375 36.4096875 66.62109375 37.4296875 C70.81166941 36.91076107 72.89337623 34.58803467 75.87109375 31.7421875 C80.25818881 27.63775091 84.71283899 23.88937423 89.62109375 20.4296875 C98.01788421 39.77881334 95.86150849 70.22340306 88.6796875 89.76953125 C88.15568359 91.08630859 88.15568359 91.08630859 87.62109375 92.4296875 C87.32332031 93.19410156 87.02554688 93.95851563 86.71875 94.74609375 C81.78307949 106.58746635 74.80387411 117.48236305 65.62109375 126.4296875 C64.73813038 127.52749655 63.86318192 128.63179697 62.99609375 129.7421875 C62.21234375 130.6290625 61.42859375 131.5159375 60.62109375 132.4296875 C59.63109375 132.4296875 58.64109375 132.4296875 57.62109375 132.4296875 C57.62109375 133.0896875 57.62109375 133.7496875 57.62109375 134.4296875 C54.47600307 137.01534773 51.00675611 139.17257926 47.62109375 141.4296875 C46.77933594 142.02523437 45.93757812 142.62078125 45.0703125 143.234375 C21.94252373 159.02725049 -7.71614529 161.29257506 -34.64453125 156.47265625 C-49.14493877 153.50827269 -61.96622247 146.66155509 -74.00390625 138.2421875 C-74.92937256 137.59975098 -74.92937256 137.59975098 -75.87353516 136.94433594 C-80.25806065 133.79222429 -80.25806065 133.79222429 -81.37890625 130.4296875 C-82.69339318 129.72658984 -84.02980485 129.06383861 -85.37890625 128.4296875 C-90.17369683 124.36430578 -93.88304689 119.62050898 -97.37890625 114.4296875 C-90.63501989 105.75897647 -80.45962245 94.98186781 -69.37890625 92.4296875 C-59.12237049 91.76797552 -51.82712961 100.17886228 -44.50390625 106.4296875 C-29.16868783 119.31443287 -12.56409021 127.54875928 7.64550781 126.60888672 C16.52573643 125.80338897 24.64397541 121.13895717 30.33984375 114.39453125 C35.9144889 106.6474141 38.73708986 97.97765424 37.62109375 88.4296875 C35.1268149 73.29772917 28.02612215 62.80002116 15.87109375 53.7421875 C5.60173328 46.92926808 -5.90563747 44.0293038 -17.75585938 41.20117188 C-26.26942967 39.04872252 -34.61320884 36.19538491 -40.94140625 29.8671875 C-44.72935099 23.44415077 -44.99790158 17.76777726 -44.37890625 10.4296875 C-42.65050307 4.93946562 -39.06324777 1.58998178 -34.37890625 -1.5703125 C-23.51429882 -7.07732373 -9.72858058 -8.05428034 0 0 Z " fill="#014F9A" transform="translate(123.37890625,59.5703125)"/>
<path d="M0 0 C11.99547558 10.70512562 20.63156062 23.31777801 27 38 C27 38.66 27 39.32 27 40 C29.475 39.01 29.475 39.01 32 38 C32 35.69 32 33.38 32 31 C32.66 31 33.32 31 34 31 C34 32.98 34 34.96 34 37 C35.65 37 37.3 37 39 37 C39 37.66 39 38.32 39 39 C37.906875 39.103125 36.81375 39.20625 35.6875 39.3125 C31.94024845 40.01114012 31.34037259 40.31397238 29 43 C29.26554688 43.82242188 29.53109375 44.64484375 29.8046875 45.4921875 C30.33449219 47.16667969 30.33449219 47.16667969 30.875 48.875 C31.39707031 50.51082031 31.39707031 50.51082031 31.9296875 52.1796875 C34.47346676 61.25930837 35.35912766 69.68889415 35.3125 79.125 C35.30686035 80.31915527 35.3012207 81.51331055 35.29541016 82.74365234 C34.87286288 113.58960315 22.15090151 138.48016694 0.76953125 160.2734375 C-10.35575151 170.89556677 -23.55645697 178.00813627 -38 183 C-39.15886719 183.40089844 -40.31773437 183.80179688 -41.51171875 184.21484375 C-67.97284841 192.85082219 -97.27293475 188.8187895 -122 177 C-136.59494313 169.49454153 -151.22797117 158.03524613 -160 144 C-160 143.34 -160 142.68 -160 142 C-159.34 142 -158.68 142 -158 142 C-156.71464829 143.49514474 -155.49626194 145.04820119 -154.3125 146.625 C-151.32326755 150.46443081 -148.35590247 153.67228008 -144.5703125 156.7109375 C-143 158 -143 158 -140.6875 160.4375 C-120.09449101 180.07269462 -92.57896926 185.79356784 -65.05078125 185.25 C-44.9811187 184.49705824 -25.09020321 176.82724917 -9.27734375 164.63671875 C-7 163 -7 163 -4 162 C-4 161.34 -4 160.68 -4 160 C-3.01 160 -2.02 160 -1 160 C-0.731875 159.41734375 -0.46375 158.8346875 -0.1875 158.234375 C1.01480991 155.97213399 2.33825913 154.19423682 4 152.25 C4.515625 151.63640625 5.03125 151.0228125 5.5625 150.390625 C7 149 7 149 9 149 C9.26039063 148.43925781 9.52078125 147.87851563 9.7890625 147.30078125 C11.58871868 143.8814345 13.89034691 140.8589687 16.1484375 137.73046875 C19.98912827 132.06666528 22.79157981 126.46397284 25.125 120.0625 C25.50205078 119.06573242 25.50205078 119.06573242 25.88671875 118.04882812 C30.59979645 105.3284535 31.17498471 92.90838017 31.125 79.4375 C31.12886719 78.39142578 31.13273438 77.34535156 31.13671875 76.26757812 C31.12517686 66.9705822 30.9108988 57.894413 28 49 C27.01 45.7 26.02 42.4 25 39 C10.15 38.505 10.15 38.505 -5 38 C-5 37.67 -5 37.34 -5 37 C1.6 37 8.2 37 15 37 C15 35.02 15 33.04 15 31 C15.66 30.01 16.32 29.02 17 28 C16.34 28 15.68 28 15 28 C15 26.35 15 24.7 15 23 C12.36 23.33 9.72 23.66 7 24 C7 22.35 7 20.7 7 19 C7.99 18.67 8.98 18.34 10 18 C10 17.34 10 16.68 10 16 C9.01 16.33 8.02 16.66 7 17 C6.9175 16.236875 6.835 15.47375 6.75 14.6875 C6.21003348 11.90315031 6.21003348 11.90315031 4.125 10.125 C3.42375 9.75375 2.7225 9.3825 2 9 C1.01 9.33 0.02 9.66 -1 10 C-0.8453125 8.88625 -0.8453125 8.88625 -0.6875 7.75 C-0.7254586 4.74927133 -0.7254586 4.74927133 -3.5 2.6875 C-4.325 2.130625 -5.15 1.57375 -6 1 C-6.99 1.66 -7.98 2.32 -9 3 C-10.20628008 0.66785852 -11.1654738 -1.49642139 -12 -4 C-13.96672915 -5.1500831 -13.96672915 -5.1500831 -16 -6 C-16.33 -6.33 -16.66 -6.66 -17 -7 C-18.34747084 -7.23075082 -19.70377565 -7.41153063 -21.0625 -7.5625 C-22.361875 -7.706875 -23.66125 -7.85125 -25 -8 C-25 -8.99 -25 -9.98 -25 -11 C-31.64783942 -14.96313504 -37.31345427 -15.74378181 -45 -16 C-45 -16.66 -45 -17.32 -45 -18 C-47.64 -18 -50.28 -18 -53 -18 C-53 -17.34 -53 -16.68 -53 -16 C-54.32 -16 -55.64 -16 -57 -16 C-57 -16.99 -57 -17.98 -57 -19 C-67.23 -19 -77.46 -19 -88 -19 C-88.33 -18.01 -88.66 -17.02 -89 -16 C-89.86625 -16.185625 -90.7325 -16.37125 -91.625 -16.5625 C-95.16133755 -17.02091413 -97.50866826 -16.65874184 -101 -16 C-101.85078125 -15.96132813 -102.7015625 -15.92265625 -103.578125 -15.8828125 C-109.36230367 -15.61414846 -112.78235562 -15.01116134 -117.23046875 -11.27734375 C-120.43522996 -8.96397307 -124.22891109 -8.05180031 -128 -7 C-128.33 -4.69 -128.66 -2.38 -129 0 C-130.11375 -0.020625 -131.2275 -0.04125 -132.375 -0.0625 C-135.83215921 -0.26380718 -135.83215921 -0.26380718 -138 1 C-138.66 0.67 -139.32 0.34 -140 0 C-140.495 1.485 -140.495 1.485 -141 3 C-142.32 3 -143.64 3 -145 3 C-145 3.66 -145 4.32 -145 5 C-146.375 6.625 -146.375 6.625 -148 8 C-148.66 8 -149.32 8 -150 8 C-150.04125 8.556875 -150.0825 9.11375 -150.125 9.6875 C-151 12 -151 12 -153.76171875 14.1875 C-157.32982796 17.0725013 -159.42402418 20.36439139 -161.6875 24.3125 C-162.06455078 24.93833984 -162.44160156 25.56417969 -162.83007812 26.20898438 C-165.09622597 30.06499511 -166.80704547 33.90358011 -168.29077148 38.11914062 C-169 40 -169 40 -170.5859375 43.04296875 C-172.21190418 46.4431256 -172.91466596 49.61642124 -173.625 53.3125 C-174.90661479 59.90661479 -174.90661479 59.90661479 -176 61 C-179.46436071 81.10184607 -177.85006715 105.02969054 -168.27734375 123.28515625 C-167 126 -167 126 -168 129 C-176.49136328 122.06374105 -178.84427678 103.48406067 -180 93 C-180.60730208 79.20506271 -181.13002264 65.29665824 -177 52 C-176.68289062 50.8346875 -176.36578125 49.669375 -176.0390625 48.46875 C-171.21494121 32.18306393 -162.53270506 18.33771937 -151 6 C-150.01966797 4.89978516 -150.01966797 4.89978516 -149.01953125 3.77734375 C-109.80265275 -38.28254939 -41.84277507 -35.96051055 0 0 Z " fill="#071C2E" transform="translate(185,32)"/>
<path d="M0 0 C-0.66 0.33 -1.32 0.66 -2 1 C-2.33 1.66 -2.66 2.32 -3 3 C-3.85688416 2.75650314 -3.85688416 2.75650314 -4.7310791 2.50808716 C-7.00532528 1.99880749 -8.9763249 1.87311827 -11.30273438 1.87060547 C-12.14461304 1.86745331 -12.9864917 1.86430115 -13.85388184 1.86105347 C-15.21011658 1.86408981 -15.21011658 1.86408981 -16.59375 1.8671875 C-17.5362561 1.86623077 -18.47876221 1.86527405 -19.4498291 1.86428833 C-21.44702216 1.863608 -23.44421744 1.86545203 -25.44140625 1.86962891 C-28.46098981 1.8749315 -31.48042136 1.86970378 -34.5 1.86328125 C-51.34608377 1.75887552 -51.34608377 1.75887552 -68 4 C-68 4.66 -68 5.32 -68 6 C-69.4540625 6.3403125 -69.4540625 6.3403125 -70.9375 6.6875 C-74.93959361 7.81359517 -78.26507467 9.74687126 -81.84375 11.82421875 C-84.46748197 13.25491318 -87.12809982 14.18997687 -90 15 C-90.33 17.31 -90.66 19.62 -91 22 C-92.11375 21.979375 -93.2275 21.95875 -94.375 21.9375 C-97.83215921 21.73619282 -97.83215921 21.73619282 -100 23 C-100.66 22.67 -101.32 22.34 -102 22 C-102.495 23.485 -102.495 23.485 -103 25 C-104.32 25 -105.64 25 -107 25 C-107 25.66 -107 26.32 -107 27 C-108.375 28.625 -108.375 28.625 -110 30 C-110.66 30 -111.32 30 -112 30 C-112.04125 30.556875 -112.0825 31.11375 -112.125 31.6875 C-113 34 -113 34 -115.76171875 36.1875 C-119.32982796 39.0725013 -121.42402418 42.36439139 -123.6875 46.3125 C-124.06455078 46.93833984 -124.44160156 47.56417969 -124.83007812 48.20898438 C-127.09622597 52.06499511 -128.80704547 55.90358011 -130.29077148 60.11914062 C-131 62 -131 62 -132.5859375 65.04296875 C-134.21190418 68.4431256 -134.91466596 71.61642124 -135.625 75.3125 C-136.90661479 81.90661479 -136.90661479 81.90661479 -138 83 C-141.46436071 103.10184607 -139.85006715 127.02969054 -130.27734375 145.28515625 C-129 148 -129 148 -130 151 C-138.49136328 144.06374105 -140.84427678 125.48406067 -142 115 C-142.60730208 101.20506271 -143.13002264 87.29665824 -139 74 C-138.68289062 72.8346875 -138.36578125 71.669375 -138.0390625 70.46875 C-133.21494121 54.18306393 -124.53270506 40.33771937 -113 28 C-112.01966797 26.89978516 -112.01966797 26.89978516 -111.01953125 25.77734375 C-83.68988799 -3.53355296 -37.31029656 -13.04159302 0 0 Z " fill="#0D1219" transform="translate(147,10)"/>
<path d="M0 0 C0.33 0 0.66 0 1 0 C1.85383843 33.31283459 -5.56484102 60.72493074 -28.67578125 85.6015625 C-41.12194456 98.44516632 -55.14263322 107.17388949 -72 113 C-73.15886719 113.40089844 -74.31773437 113.80179687 -75.51171875 114.21484375 C-101.97284841 122.85082219 -131.27293475 118.8187895 -156 107 C-170.59494313 99.49454153 -185.22797117 88.03524613 -194 74 C-194 73.34 -194 72.68 -194 72 C-193.34 72 -192.68 72 -192 72 C-190.71464829 73.49514474 -189.49626194 75.04820119 -188.3125 76.625 C-185.32326755 80.46443081 -182.35590247 83.67228008 -178.5703125 86.7109375 C-177 88 -177 88 -174.6875 90.4375 C-154.09449101 110.07269462 -126.57896926 115.79356784 -99.05078125 115.25 C-78.9811187 114.49705824 -59.09020321 106.82724917 -43.27734375 94.63671875 C-41 93 -41 93 -38 92 C-38 91.34 -38 90.68 -38 90 C-37.01 90 -36.02 90 -35 90 C-34.731875 89.41734375 -34.46375 88.8346875 -34.1875 88.234375 C-32.98519009 85.97213399 -31.66174087 84.19423682 -30 82.25 C-29.484375 81.63640625 -28.96875 81.0228125 -28.4375 80.390625 C-27 79 -27 79 -25 79 C-24.73960937 78.43925781 -24.47921875 77.87851563 -24.2109375 77.30078125 C-22.41128132 73.8814345 -20.10965309 70.8589687 -17.8515625 67.73046875 C-4.89424757 48.62252964 -1.42517851 26.77358931 -1.1418457 4.17626953 C-1 2 -1 2 0 0 Z " fill="#0A0E16" transform="translate(219,102)"/>
<path d="M0 0 C1.2684375 0.0309375 2.536875 0.061875 3.84375 0.09375 C3.98317502 7.53486245 4.08958373 14.97569033 4.15462303 22.41784763 C4.18584993 25.87417007 4.22815778 29.32959465 4.29638672 32.78540039 C4.37444714 36.76437383 4.40323975 40.74299211 4.4296875 44.72265625 C4.46065521 45.95520645 4.49162292 47.18775665 4.52352905 48.45765686 C4.52727734 58.05755467 4.52727734 58.05755467 0.80712891 62.42944336 C-0.17078613 63.30866455 -1.14870117 64.18788574 -2.15625 65.09375 C-3.09111588 61.86729086 -2.98493413 59.61207433 -2.44042969 56.29394531 C-0.0948788 38.13406162 -2.40555628 20.34583115 -8.15625 3.09375 C-5.48363402 0.42113402 -3.6595066 -0.08925626 0 0 Z " fill="#F7F7F7" transform="translate(221.15625,70.90625)"/>
<path d="M0 0 C-0.66 0.33 -1.32 0.66 -2 1 C-2.33 1.66 -2.66 2.32 -3 3 C-3.57223801 2.83766876 -4.14447601 2.67533752 -4.73405457 2.50808716 C-6.99233357 2.00171902 -8.9452541 1.87313144 -11.25512695 1.87060547 C-12.50342033 1.86587723 -12.50342033 1.86587723 -13.77693176 1.86105347 C-14.67167709 1.8630777 -15.56642242 1.86510193 -16.48828125 1.8671875 C-17.42367233 1.86623077 -18.35906342 1.86527405 -19.32279968 1.86428833 C-21.30740425 1.86360781 -23.29201104 1.86545317 -25.27661133 1.86962891 C-28.26323696 1.87491284 -31.24970759 1.8697142 -34.23632812 1.86328125 C-44.86859559 1.85995253 -55.40371823 2.08546787 -66 3 C-65.60717773 1.06323242 -65.60717773 1.06323242 -65 -1 C-63.28515625 -2.01171875 -63.28515625 -2.01171875 -61.0625 -2.6875 C-60.35222656 -2.91824219 -59.64195313 -3.14898437 -58.91015625 -3.38671875 C-39.92334298 -7.38796665 -18.29550323 -6.39508471 0 0 Z " fill="#0A0C10" transform="translate(147,10)"/>
<path d="M0 0 C0.66 0.33 1.32 0.66 2 1 C2.40729228 3.32156597 2.74438677 5.6568787 3 8 C0.66666667 8 -1.66666667 8 -4 8 C-4 10.64 -4 13.28 -4 16 C-6.31 16.33 -8.62 16.66 -11 17 C-11.144375 17.78375 -11.28875 18.5675 -11.4375 19.375 C-12 22 -12 22 -13 24 C-13.886875 23.814375 -14.77375 23.62875 -15.6875 23.4375 C-18.92974092 23.0092795 -20.8608186 23.29368418 -24 24 C-29.46751189 24.43740095 -29.46751189 24.43740095 -31.75 22.5625 C-32.1625 22.046875 -32.575 21.53125 -33 21 C-35.83269666 19.58365167 -38.47466438 19.6536995 -41.625 19.4375 C-42.81351563 19.35371094 -44.00203125 19.26992187 -45.2265625 19.18359375 C-46.59941406 19.09271484 -46.59941406 19.09271484 -48 19 C-48 18.67 -48 18.34 -48 18 C-47.27296875 17.96261719 -46.5459375 17.92523438 -45.796875 17.88671875 C-38.24994883 17.39326589 -31.27375594 16.05058013 -24 14 C-23.01 15.485 -23.01 15.485 -22 17 C-17.80525321 16.47934056 -15.68299894 14.14699617 -12.6875 11.3125 C-8.53590534 7.43359721 -4.34040953 3.66523471 0 0 Z " fill="#054484" transform="translate(212,80)"/>
<path d="M0 0 C0.66 0 1.32 0 2 0 C3.28535171 1.49514474 4.50373806 3.04820119 5.6875 4.625 C8.67673245 8.46443081 11.64409753 11.67228008 15.4296875 14.7109375 C17 16 17 16 19.3125 18.4375 C35.66114652 34.02574435 56.99778895 41.03969662 79 43 C79 43.33 79 43.66 79 44 C61.02294327 47.07986819 41.70358188 38.71912899 27 28.5625 C3.42844099 11.26091654 3.42844099 11.26091654 0.22265625 1.67578125 C0.14917969 1.12277344 0.07570313 0.56976563 0 0 Z " fill="#0E161F" transform="translate(25,174)"/>
<path d="M0 0 C12.10489353 3.99120134 21.81032365 10.63465571 28 22 C28 22.66 28 23.32 28 24 C24.04 24.495 24.04 24.495 20 25 C20.020625 24.05125 20.04125 23.1025 20.0625 22.125 C20.22551826 19.09333717 20.22551826 19.09333717 19 17 C16.69 17 14.38 17 12 17 C12 14.69 12 12.38 12 10 C8.26562152 9.12132271 4.83225427 8.91087781 1 9 C0.67 6.03 0.34 3.06 0 0 Z " fill="#0852A0" transform="translate(116,119)"/>
<path d="M0 0 C3.24623365 2.92715941 5.00516159 5.62910463 6.75 9.625 C7.17796875 10.58664063 7.6059375 11.54828125 8.046875 12.5390625 C9 15 9 15 9 17 C10.65 16.34 12.3 15.68 14 15 C14 12.69 14 10.38 14 8 C14.66 8 15.32 8 16 8 C16 9.98 16 11.96 16 14 C17.65 14 19.3 14 21 14 C21 14.66 21 15.32 21 16 C19.906875 16.103125 18.81375 16.20625 17.6875 16.3125 C13.94024845 17.01114012 13.34037259 17.31397238 11 20 C11.26554688 20.82242188 11.53109375 21.64484375 11.8046875 22.4921875 C17.45204705 40.34114142 17.45204705 40.34114142 16.5703125 45.52734375 C15.54697594 51.7584821 15.63610324 58.10547208 15.48242188 64.41015625 C15.44826172 65.45300781 15.41410156 66.49585937 15.37890625 67.5703125 C15.3538501 68.51664551 15.32879395 69.46297852 15.30297852 70.43798828 C14.99307205 73.05858331 14.32807118 74.74105023 13 77 C13.00523682 76.05793701 13.01047363 75.11587402 13.01586914 74.14526367 C13.03306826 70.59854501 13.04552583 67.05187167 13.05493164 63.50512695 C13.05991292 61.97972914 13.06670038 60.45433599 13.07543945 58.92895508 C13.31790211 42.24500936 13.31790211 42.24500936 10 26 C9.64035156 24.70642578 9.64035156 24.70642578 9.2734375 23.38671875 C9.01820313 22.47535156 8.76296875 21.56398438 8.5 20.625 C8.2628125 19.77164063 8.025625 18.91828125 7.78125 18.0390625 C7.19217575 15.81474734 7.19217575 15.81474734 5 15 C3.96484375 12.890625 3.96484375 12.890625 2.9375 10.25 C2.59589844 9.38890625 2.25429687 8.5278125 1.90234375 7.640625 C1.0344672 5.10086505 0.46073358 2.64090587 0 0 Z " fill="#13202E" transform="translate(203,55)"/>
<path d="M0 0 C4.6954709 3.6674684 8.33381387 7.4664446 11.73828125 12.36328125 C12.91946343 14.14112337 12.91946343 14.14112337 15 15 C15.99 16.485 15.99 16.485 17 18 C17.66 18.33 18.32 18.66 19 19 C19.33333333 20.66666667 19.66666667 22.33333333 20 24 C20.7734375 25.5159375 20.7734375 25.5159375 21.5625 27.0625 C23 30 23 30 23 34 C13.76 34 4.52 34 -5 34 C-5 33.67 -5 33.34 -5 33 C1.6 33 8.2 33 15 33 C15 31.02 15 29.04 15 27 C15.66 26.01 16.32 25.02 17 24 C16.34 24 15.68 24 15 24 C15 22.35 15 20.7 15 19 C11.04 19.495 11.04 19.495 7 20 C7 18.35 7 16.7 7 15 C7.99 14.67 8.98 14.34 10 14 C10 13.34 10 12.68 10 12 C9.01 12.33 8.02 12.66 7 13 C6.87625 11.8553125 6.87625 11.8553125 6.75 10.6875 C6.21003348 7.90315031 6.21003348 7.90315031 4.125 6.125 C3.42375 5.75375 2.7225 5.3825 2 5 C1.01 5.33 0.02 5.66 -1 6 C-1.042721 4.33388095 -1.04063832 2.66617115 -1 1 C-0.67 0.67 -0.34 0.34 0 0 Z " fill="#04284E" transform="translate(185,36)"/>
<path d="M0 0 C0 0.66 0 1.32 0 2 C-1.65 2.33 -3.3 2.66 -5 3 C-5 3.66 -5 4.32 -5 5 C-8.86207074 5.90816798 -12.43148656 6.11643845 -16.39453125 6.09765625 C-17.59658203 6.09443359 -18.79863281 6.09121094 -20.03710938 6.08789062 C-21.28298828 6.07951172 -22.52886719 6.07113281 -23.8125 6.0625 C-25.07771484 6.05798828 -26.34292969 6.05347656 -27.64648438 6.04882812 C-30.7643711 6.03706251 -33.88216133 6.02062272 -37 6 C-37.33 5.34 -37.66 4.68 -38 4 C-37.01 4 -36.02 4 -35 4 C-35 3.34 -35 2.68 -35 2 C-32.31497145 0.65748572 -30.11205222 0.78527715 -27.109375 0.68359375 C-25.92472656 0.64169922 -24.74007812 0.59980469 -23.51953125 0.55664062 C-22.27558594 0.51732422 -21.03164062 0.47800781 -19.75 0.4375 C-18.52152344 0.39431641 -17.29304688 0.35113281 -16.02734375 0.30664062 C-10.68176109 0.12420741 -5.34916237 -0.02361994 0 0 Z " fill="#FDFDFA" transform="translate(131,219)"/>
<path d="M0 0 C4.83294255 3.76592926 7.48162267 8.31579298 10.1171875 13.78125 C9.4571875 14.44125 8.7971875 15.10125 8.1171875 15.78125 C7.3334375 14.976875 6.5496875 14.1725 5.7421875 13.34375 C3.39735894 10.79434583 3.39735894 10.79434583 1.1171875 9.78125 C1.1171875 10.44125 1.1171875 11.10125 1.1171875 11.78125 C0.4571875 11.78125 -0.2028125 11.78125 -0.8828125 11.78125 C-1.2128125 12.44125 -1.5428125 13.10125 -1.8828125 13.78125 C-1.92535606 11.78170254 -1.92362033 9.78083364 -1.8828125 7.78125 C-1.5528125 7.45125 -1.2228125 7.12125 -0.8828125 6.78125 C-1.8109375 6.513125 -2.7390625 6.245 -3.6953125 5.96875 C-8.12671494 4.31783537 -8.12671494 4.31783537 -9.8828125 1.78125 C-9.8828125 0.46125 -9.8828125 -0.85875 -9.8828125 -2.21875 C-14.1728125 -2.21875 -18.4628125 -2.21875 -22.8828125 -2.21875 C-22.8828125 -2.54875 -22.8828125 -2.87875 -22.8828125 -3.21875 C-14.52603754 -5.30794374 -7.2441292 -4.68914587 0 0 Z " fill="#054383" transform="translate(121.8828125,58.21875)"/>
<path d="M0 0 C0.99 1.485 0.99 1.485 2 3 C1.67 3.99 1.34 4.98 1 6 C-1.64 6 -4.28 6 -7 6 C-7 5.34 -7 4.68 -7 4 C-9.64 4 -12.28 4 -15 4 C-15 4.66 -15 5.32 -15 6 C-16.32 6 -17.64 6 -19 6 C-19 5.01 -19 4.02 -19 3 C-29.23 3 -39.46 3 -50 3 C-50.33 3.99 -50.66 4.98 -51 6 C-51.86625 5.814375 -52.7325 5.62875 -53.625 5.4375 C-57.07845559 4.98982983 -59.5958436 5.42056912 -63 6 C-65.875 5.5625 -65.875 5.5625 -68 5 C-58.19973374 -1.53351084 -42.8849303 0.84544681 -31.515625 0.86962891 C-28.47911704 0.87503719 -25.44275375 0.86963172 -22.40625 0.86328125 C-20.46874967 0.86394124 -18.53124944 0.86522077 -16.59375 0.8671875 C-15.23751526 0.86415115 -15.23751526 0.86415115 -13.85388184 0.86105347 C-13.01200317 0.86420563 -12.17012451 0.86735779 -11.30273438 0.87060547 C-10.56615601 0.87140106 -9.82957764 0.87219666 -9.07067871 0.87301636 C-7 1 -7 1 -4.9185791 1.63308716 C-2.68065194 2.29346365 -2.68065194 2.29346365 0 0 Z " fill="#021C36" transform="translate(147,10)"/>
<path d="M0 0 C0.66 0 1.32 0 2 0 C2.01981934 0.56807373 2.03963867 1.13614746 2.06005859 1.72143555 C2.70163503 19.25490415 3.39102215 37.39648443 11.72265625 53.28515625 C13 56 13 56 12 59 C3.51658962 52.07023745 1.14417069 33.47598485 0 23 C-0.11393815 19.01968883 -0.09462881 15.04400069 -0.0625 11.0625 C-0.05798828 9.99708984 -0.05347656 8.93167969 -0.04882812 7.83398438 C-0.03711787 5.22259709 -0.02071724 2.61132876 0 0 Z " fill="#050A12" transform="translate(5,102)"/>
<path d="M0 0 C0.66 0 1.32 0 2 0 C3.11328125 1.57421875 3.11328125 1.57421875 4.3125 3.6875 C8.34868747 10.3250453 13.10938516 13.87025034 19.79296875 17.66796875 C22 19 22 19 24 21 C19.05 21 14.1 21 9 21 C8.49019019 18.96076075 7.98144061 16.9211226 7.5 14.875 C7.04861276 12.92918141 7.04861276 12.92918141 6 11 C5.34 11.66 4.68 12.32 4 13 C3.01 12.67 2.02 12.34 1 12 C-0.26237731 9.47524538 -0.09856404 7.68799534 -0.0625 4.875 C-0.05347656 3.96492188 -0.04445312 3.05484375 -0.03515625 2.1171875 C-0.02355469 1.41851562 -0.01195312 0.71984375 0 0 Z " fill="#0C539D" transform="translate(64,91)"/>
<path d="M0 0 C1.44791044 0.01005493 2.89582768 0.01917632 4.34375 0.02734375 C7.85431037 0.04914656 11.36461028 0.08353619 14.875 0.125 C14.875 0.785 14.875 1.445 14.875 2.125 C16.195 2.455 17.515 2.785 18.875 3.125 C3.695 3.455 -11.485 3.785 -27.125 4.125 C-26.125 2.125 -26.125 2.125 -24.40673828 1.49658203 C-16.28282256 -0.20290379 -8.24992562 -0.10042399 0 0 Z " fill="#001222" transform="translate(114.125,7.875)"/>
<path d="M0 0 C1.546875 0.41088867 1.546875 0.41088867 3.125 0.83007812 C4.20523438 1.12462891 5.28546875 1.41917969 6.3984375 1.72265625 C8.03039062 2.15868164 8.03039062 2.15868164 9.6953125 2.60351562 C12.38978794 3.32440598 15.08231296 4.05187378 17.7734375 4.78515625 C17.4434375 5.44515625 17.1134375 6.10515625 16.7734375 6.78515625 C8.8534375 6.78515625 0.9334375 6.78515625 -7.2265625 6.78515625 C-7.2265625 5.79515625 -7.2265625 4.80515625 -7.2265625 3.78515625 C-6.2365625 3.12515625 -5.2465625 2.46515625 -4.2265625 1.78515625 C-5.2165625 1.12515625 -6.2065625 0.46515625 -7.2265625 -0.21484375 C-4.41902943 -1.61861028 -3.00558104 -0.80919489 0 0 Z " fill="#0A549E" transform="translate(95.2265625,113.21484375)"/>
<path d="M0 0 C3.3 0 6.6 0 10 0 C10 2.31 10 4.62 10 7 C12.70879335 8.35439668 15.00933268 8.06501451 18 8 C18 9.98 18 11.96 18 14 C17.01 14.33 16.02 14.66 15 15 C12.88463887 13.65521346 11.0078968 12.30916089 9.0625 10.75 C8.02222656 9.94046875 6.98195313 9.1309375 5.91015625 8.296875 C4.94980469 7.53890625 3.98945312 6.7809375 3 6 C1.67008109 4.99546355 0.33834736 3.99327948 -1 3 C-0.67 2.01 -0.34 1.02 0 0 Z M8 2 C7.67 2.66 7.34 3.32 7 4 C7.66 4 8.32 4 9 4 C8.67 3.34 8.34 2.68 8 2 Z " fill="#0854A2" transform="translate(70,136)"/>
<path d="M0 0 C0.66 0.33 1.32 0.66 2 1 C2.40729228 3.32156597 2.74438677 5.6568787 3 8 C0.66666667 8 -1.66666667 8 -4 8 C-4 10.64 -4 13.28 -4 16 C-10.57403846 16.37211538 -10.57403846 16.37211538 -12.73046875 14.48828125 C-13.14941406 13.99714844 -13.56835938 13.50601563 -14 13 C-9.52647956 8.40410362 -4.91935902 4.11619836 0 0 Z " fill="#023970" transform="translate(212,80)"/>
<path d="M0 0 C1.12608134 2.81520335 0.929676 4.50105851 0.5 7.5625 C-1 11 -1 11 -4.5625 12.6875 C-5.696875 13.120625 -6.83125 13.55375 -8 14 C-9.14087999 15.97104162 -9.14087999 15.97104162 -9 18 C-8.67 18.66 -8.34 19.32 -8 20 C-8.99 20.33 -9.98 20.66 -11 21 C-11.33 23.31 -11.66 25.62 -12 28 C-13.32 28 -14.64 28 -16 28 C-14.70658914 21.53294572 -11.48670873 15.86615908 -8.0625 10.3125 C-7.39347656 9.21550781 -6.72445313 8.11851563 -6.03515625 6.98828125 C-4.21061603 4.30925387 -2.37767726 2.18618647 0 0 Z " fill="#052B54" transform="translate(32,44)"/>
<path d="M0 0 C4.21365599 6.32048399 1.95026254 15.75424812 1 23 C0.34 22.34 -0.32 21.68 -1 21 C-1.66 21.66 -2.32 22.32 -3 23 C-3.99 23 -4.98 23 -6 23 C-4.64741104 15.11583017 -2.45600648 7.60646666 0 0 Z " fill="#023566" transform="translate(14,73)"/>
<path d="M0 0 C0.33 0 0.66 0 1 0 C1.66 6.6 2.32 13.2 3 20 C0 21 0 21 -4 21 C-4.33 18.36 -4.66 15.72 -5 13 C-4.34 13 -3.68 13 -3 13 C-3 10.36 -3 7.72 -3 5 C-2.67 5.66 -2.34 6.32 -2 7 C-1.34 7 -0.68 7 0 7 C-0.2784375 5.824375 -0.2784375 5.824375 -0.5625 4.625 C-1 2 -1 2 0 0 Z " fill="#02488B" transform="translate(61,67)"/>
<path d="M0 0 C4.73337482 0.3227301 8.44505413 1.49840713 12.8125 3.375 C23.48869885 7.9542843 33.52257803 9.7896019 45 11 C45 11.33 45 11.66 45 12 C28.49443788 14.82776856 14.55757869 7.87024332 0 1 C0 0.67 0 0.34 0 0 Z " fill="#101118" transform="translate(59,206)"/>
<path d="M0 0 C2 1 2 1 4 3 C6.68839385 3.26991906 9.29141936 3.08737357 12 3 C12.33 2.34 12.66 1.68 13 1 C14.98 1 16.96 1 19 1 C18.01 1.495 18.01 1.495 17 2 C17.99 3.65 18.98 5.3 20 7 C12.08 7 4.16 7 -4 7 C-1 1 -1 1 0 0 Z " fill="#043262" transform="translate(100,32)"/>
<path d="M0 0 C0.66 0.33 1.32 0.66 2 1 C0.71480435 3.86697492 -0.57129254 5.97607712 -3 8 C-3.66 8 -4.32 8 -5 8 C-5.04125 8.556875 -5.0825 9.11375 -5.125 9.6875 C-6 12 -6 12 -8.75 14.15625 C-12.46055356 17.15025616 -14.55963207 20.69760291 -16.875 24.8125 C-17.2771875 25.50537109 -17.679375 26.19824219 -18.09375 26.91210938 C-19.07280506 28.6021449 -20.03788507 30.30026362 -21 32 C-21.33 31.34 -21.66 30.68 -22 30 C-17.82978083 17.97995652 -8.82745138 8.82745138 0 0 Z " fill="#0E141D" transform="translate(40,32)"/>
<path d="M0 0 C0.66 0.66 1.32 1.32 2 2 C-1.867713 5.867713 -1.867713 5.867713 -4.97265625 6.23046875 C-6.9828142 6.1891384 -8.99169291 6.09563367 -11 6 C-13.35529281 6.41731018 -13.35529281 6.41731018 -15 7 C-14.67 6.01 -14.34 5.02 -14 4 C-14.99 3.67 -15.98 3.34 -17 3 C-10.87497125 -0.3035456 -6.8545382 -1.68357079 0 0 Z " fill="#0C59A5" transform="translate(62,153)"/>
<path d="M0 0 C-4.58154261 2.39542583 -9.0276578 4.50829734 -14 6 C-14.33 8.31 -14.66 10.62 -15 13 C-16.11375 12.979375 -17.2275 12.95875 -18.375 12.9375 C-21.83215921 12.73619282 -21.83215921 12.73619282 -24 14 C-24.66 13.34 -25.32 12.68 -26 12 C-23.16569547 8.7457985 -21.31392226 7.4793247 -17 7 C-17 6.34 -17 5.68 -17 5 C-15.60922699 4.17886823 -14.21211107 3.36847505 -12.8125 2.5625 C-12.03519531 2.11003906 -11.25789063 1.65757813 -10.45703125 1.19140625 C-6.60071985 -0.67850627 -4.10816309 -1.3693877 0 0 Z " fill="#05274C" transform="translate(71,19)"/>
<path d="M0 0 C10.89 2.97 10.89 2.97 22 6 C22 6.33 22 6.66 22 7 C21.40832031 6.98839844 20.81664063 6.97679688 20.20703125 6.96484375 C15.9510525 6.91624367 12.17393742 7.14380771 8 8 C5.3268771 8.08541934 2.67560619 8.04534926 0 8 C0.99 6.68 1.98 5.36 3 4 C1.35 4 -0.3 4 -2 4 C-2 3.34 -2 2.68 -2 2 C-1.34 2 -0.68 2 0 2 C0 1.34 0 0.68 0 0 Z " fill="#EFF6F7" transform="translate(93,96)"/>
<path d="M0 0 C1.32 0 2.64 0 4 0 C4.11613204 3.10385211 4.18722029 6.20714662 4.25 9.3125 C4.30027344 10.63411133 4.30027344 10.63411133 4.3515625 11.98242188 C4.45112665 18.52876499 4.45112665 18.52876499 1.984375 21.10546875 C1.32953125 21.40066406 0.6746875 21.69585937 0 22 C-0.75667376 14.46818582 -1.14364008 7.49719609 0 0 Z " fill="#ECECE9" transform="translate(1,104)"/>
<path d="M0 0 C2.78710265 2.78710265 2.93025977 4.02480688 3 8 C1.33262274 12.6911527 -0.44626378 17.44626378 -4 21 C-6.125 21.625 -6.125 21.625 -8 22 C-6.80420965 16.91789099 -5.46217303 14.02058803 -2 10 C-1.67 9.01 -1.34 8.02 -1 7 C-0.34 7 0.32 7 1 7 C0.67 4.69 0.34 2.38 0 0 Z " fill="#034281" transform="translate(209,142)"/>
<path d="M0 0 C3.96 0 7.92 0 12 0 C12 2.64 12 5.28 12 8 C7.24518354 7.42365861 4.02951788 5.44931479 0 3 C0 2.01 0 1.02 0 0 Z " fill="#0453A3" transform="translate(100,160)"/>
<path d="M0 0 C6.15165504 0.80607894 10.09503661 6.62859381 14 11 C16.48072156 14.24469598 18.7924271 17.56437331 21 21 C20.34 21.66 19.68 22.32 19 23 C18.896875 22.360625 18.79375 21.72125 18.6875 21.0625 C18.460625 20.381875 18.23375 19.70125 18 19 C17.01 18.67 16.02 18.34 15 18 C13.68982483 16.48760214 12.44790081 14.91529128 11.25 13.3125 C8.70021928 10.01195052 6.22783307 7.14393643 3 4.5 C2.01 3.675 1.02 2.85 0 2 C0 1.34 0 0.68 0 0 Z " fill="#06070D" transform="translate(182,32)"/>
<path d="M0 0 C0.91007812 0.00902344 1.82015625 0.01804688 2.7578125 0.02734375 C3.45648438 0.03894531 4.15515625 0.05054688 4.875 0.0625 C4.875 0.7225 4.875 1.3825 4.875 2.0625 C2.94129769 3.06982399 1.00289694 4.06813288 -0.9375 5.0625 C-2.55591797 5.8978125 -2.55591797 5.8978125 -4.20703125 6.75 C-7.125 8.0625 -7.125 8.0625 -10.125 8.0625 C-10.455 6.4125 -10.785 4.7625 -11.125 3.0625 C-7.05343521 1.0267176 -4.61375072 -0.05915065 0 0 Z " fill="#0B529B" transform="translate(43.125,135.9375)"/>
<path d="M0 0 C0 1.32 0 2.64 0 4 C-0.99 4 -1.98 4 -3 4 C-3 4.66 -3 5.32 -3 6 C-5.31 6.33 -7.62 6.66 -10 7 C-10.33 7.99 -10.66 8.98 -11 10 C-11.99 10.33 -12.98 10.66 -14 11 C-12.75892597 6.03570389 -11.23893588 3.86128172 -7 1 C-4.53721199 -0.231394 -2.7204945 -0.07159196 0 0 Z " fill="#08427E" transform="translate(96,57)"/>
<path d="M0 0 C5.86296195 4.57935489 11.59419615 9.78258845 14 17 C13.34 17 12.68 17 12 17 C11.71125 16.360625 11.4225 15.72125 11.125 15.0625 C10.17176549 12.84793921 10.17176549 12.84793921 8 12 C8 11.34 8 10.68 8 10 C6.02 10.66 4.04 11.32 2 12 C2.04125 11.319375 2.0825 10.63875 2.125 9.9375 C1.97450035 6.40075832 1.05624147 3.36676967 0 0 Z " fill="#F1F7F5" transform="translate(143,116)"/>
<path d="M0 0 C3 0.125 3 0.125 4 1.125 C5.66617115 1.16563832 7.33388095 1.167721 9 1.125 C9 1.785 9 2.445 9 3.125 C2.72307692 7.18653846 2.72307692 7.18653846 -0.9375 6.875 C-1.618125 6.6275 -2.29875 6.38 -3 6.125 C-3.38218767 4.46885343 -3.71395102 2.80042976 -4 1.125 C-3 0.125 -3 0.125 0 0 Z " fill="#063565" transform="translate(76,39.875)"/>
<path d="M0 0 C4.9566399 0.43735058 7.27233553 2.89361294 11 6 C13.72113503 6.86542699 13.72113503 6.86542699 16 7 C15.01 7.495 15.01 7.495 14 8 C14 8.66 14 9.32 14 10 C14.99 10.33 15.98 10.66 17 11 C16.01 11.33 15.02 11.66 14 12 C13.01 11.01 12.02 10.02 11 9 C10.01 9.66 9.02 10.32 8 11 C6.79371992 8.66785852 5.8345262 6.50357861 5 4 C3.68352881 3.30062468 2.34977849 2.63270867 1 2 C0.67 1.34 0.34 0.68 0 0 Z " fill="#09213A" transform="translate(168,24)"/>
<path d="M0 0 C3.0831351 1.19899698 6.06279492 2.47700477 9 4 C8.34 5.32 7.68 6.64 7 8 C4.69 7.34 2.38 6.68 0 6 C0 6.66 0 7.32 0 8 C-0.99 7.67 -1.98 7.34 -3 7 C-3 6.01 -3 5.02 -3 4 C-2.34 3.67 -1.68 3.34 -1 3 C-0.67 2.01 -0.34 1.02 0 0 Z " fill="#0A55A1" transform="translate(91,176)"/>
<path d="M0 0 C2.31 0.66 4.62 1.32 7 2 C7 5.38878512 6.35638802 6.39757217 4.5625 9.1875 C4.11003906 9.90292969 3.65757813 10.61835937 3.19140625 11.35546875 C2.79824219 11.89816406 2.40507813 12.44085938 2 13 C1.67 13 1.34 13 1 13 C0.67 8.71 0.34 4.42 0 0 Z " fill="#0A3C70" transform="translate(64,49)"/>
<path d="M0 0 C1.98 0 3.96 0 6 0 C6.33 0.99 6.66 1.98 7 3 C6.00390625 4.82421875 6.00390625 4.82421875 4.5625 6.6875 C4.08941406 7.31011719 3.61632812 7.93273437 3.12890625 8.57421875 C2.75636719 9.04472656 2.38382813 9.51523438 2 10 C1.67 9.34 1.34 8.68 1 8 C0.34 8 -0.32 8 -1 8 C-1.125 2.25 -1.125 2.25 0 0 Z " fill="#024A90" transform="translate(194,168)"/>
<path d="M0 0 C0.66 0.33 1.32 0.66 2 1 C3 4 3 4 2 7 C-2.75 6.125 -2.75 6.125 -5 5 C-7.204364 4.77049681 -9.41392173 4.58924067 -11.625 4.4375 C-12.81351563 4.35371094 -14.00203125 4.26992187 -15.2265625 4.18359375 C-16.59941406 4.09271484 -16.59941406 4.09271484 -18 4 C-18 3.67 -18 3.34 -18 3 C-16.80503906 2.92652344 -16.80503906 2.92652344 -15.5859375 2.8515625 C-10.0487263 2.46085903 -5.24179262 1.93118675 0 0 Z " fill="#0E4B8D" transform="translate(182,95)"/>
<path d="M0 0 C1.29550781 0.39638672 1.29550781 0.39638672 2.6171875 0.80078125 C4.90426855 1.60945321 6.98666935 2.5487146 9.125 3.6875 C8.795 4.6775 8.465 5.6675 8.125 6.6875 C6.8565625 6.2234375 6.8565625 6.2234375 5.5625 5.75 C2.0752146 4.67211179 -1.25677535 4.12168696 -4.875 3.6875 C-4.545 2.6975 -4.215 1.7075 -3.875 0.6875 C-4.865 0.3575 -5.855 0.0275 -6.875 -0.3125 C-4.11475889 -1.69262056 -2.90540064 -0.90955421 0 0 Z " fill="#090F18" transform="translate(152.875,12.3125)"/>
<path d="M0 0 C0 0.66 0 1.32 0 2 C-3.82989106 3.80230168 -6.78121808 4.19622241 -11 4 C-11 3.34 -11 2.68 -11 2 C-16.28 2 -21.56 2 -27 2 C-27 1.67 -27 1.34 -27 1 C-23.62511542 0.83094103 -20.25007637 0.66518231 -16.875 0.5 C-15.44800781 0.42845703 -15.44800781 0.42845703 -13.9921875 0.35546875 C-9.32313191 0.12850077 -4.67636296 -0.06298132 0 0 Z " fill="#D6D9DA" transform="translate(131,219)"/>
<path d="M0 0 C2 3 2 3 1.64453125 5.41796875 C1.36996094 6.33191406 1.09539062 7.24585938 0.8125 8.1875 C0.52375 9.156875 0.235 10.12625 -0.0625 11.125 C-1.26191306 14.80320006 -2.57487195 18.40324824 -4 22 C-4.99 22 -5.98 22 -7 22 C-6.72414062 21.18273437 -6.44828125 20.36546875 -6.1640625 19.5234375 C-4.85795996 15.57006672 -3.61151899 11.60055234 -2.375 7.625 C-2.14554688 6.88894531 -1.91609375 6.15289062 -1.6796875 5.39453125 C-1.11926761 3.59651743 -0.55956029 1.79828153 0 0 Z " fill="#0C111C" transform="translate(215,136)"/>
<path d="M0 0 C-0.33 0.99 -0.66 1.98 -1 3 C-3.97 3 -6.94 3 -10 3 C-10 3.66 -10 4.32 -10 5 C-11.98 5 -13.96 5 -16 5 C-16.33 4.34 -16.66 3.68 -17 3 C-11.10261508 0.70657253 -6.33393082 -0.34548714 0 0 Z " fill="#E5EEF4" transform="translate(60,136)"/>
<path d="M0 0 C3.96 0 7.92 0 12 0 C12.33 1.65 12.66 3.3 13 5 C11 5.8125 11 5.8125 8 6 C5.12666475 4.62441066 2.51268533 2.95777468 0 1 C0 0.67 0 0.34 0 0 Z " fill="#F4F7F7" transform="translate(147,90)"/>
<path d="M0 0 C0.66 0.33 1.32 0.66 2 1 C2 2.32 2 3.64 2 5 C1.01 5 0.02 5 -1 5 C-1 5.66 -1 6.32 -1 7 C-6.02649303 8.57077907 -10.76119922 9.44854729 -16 10 C-11.58522262 7.05681508 -6.94941452 4.8924232 -2 3 C-2.33 2.34 -2.66 1.68 -3 1 C-2.01 0.67 -1.02 0.34 0 0 Z " fill="#04192E" transform="translate(80,9)"/>
<path d="M0 0 C5.445 1.485 5.445 1.485 11 3 C10.01 3.495 10.01 3.495 9 4 C8.67 4.66 8.34 5.32 8 6 C3.05 5.01 -1.9 4.02 -7 3 C-7 2.34 -7 1.68 -7 1 C-5.35 1 -3.7 1 -2 1 C-2 1.66 -2 2.32 -2 3 C-1.01 2.67 -0.02 2.34 1 2 C0.67 1.34 0.34 0.68 0 0 Z " fill="#070D13" transform="translate(136,7)"/>
<path d="M0 0 C2.64 0 5.28 0 8 0 C6.28032649 3.02990095 4.70761694 5.76327296 2 8 C1.34 8 0.68 8 0 8 C0 5.36 0 2.72 0 0 Z " fill="#05509D" transform="translate(136,160)"/>
<path d="M0 0 C2.97 1.65 5.94 3.3 9 5 C8.67 5.66 8.34 6.32 8 7 C5.36 7 2.72 7 0 7 C-1 4 -1 4 0 0 Z " fill="#F1F2F1" transform="translate(49,200)"/>
<path d="M0 0 C0 0.66 0 1.32 0 2 C0.66 2.33 1.32 2.66 2 3 C-2.38235294 7.01715686 -2.38235294 7.01715686 -5.25 6.9375 C-7 6 -7 6 -8 3 C-7.67 2.34 -7.34 1.68 -7 1 C-4.61370553 0.38812962 -2.46459429 0 0 0 Z " fill="#EDF2F5" transform="translate(196,91)"/>
<path d="M0 0 C-1 3 -1 3 -3.8359375 4.67578125 C-5.58777344 5.48595703 -5.58777344 5.48595703 -7.375 6.3125 C-8.53773438 6.86550781 -9.70046875 7.41851562 -10.8984375 7.98828125 C-11.92195312 8.32214844 -12.94546875 8.65601563 -14 9 C-14.99 8.34 -15.98 7.68 -17 7 C-16.25234375 6.66226563 -15.5046875 6.32453125 -14.734375 5.9765625 C-13.74953125 5.53054687 -12.7646875 5.08453125 -11.75 4.625 C-10.77546875 4.18414062 -9.8009375 3.74328125 -8.796875 3.2890625 C-7.10237788 2.50807919 -5.4203414 1.69801003 -3.765625 0.8359375 C-2 0 -2 0 0 0 Z " fill="#0C1421" transform="translate(167,204)"/>
<path d="M0 0 C5.75 0.75 5.75 0.75 8 3 C2.25 8 2.25 8 0 8 C0 5.36 0 2.72 0 0 Z " fill="#08478B" transform="translate(24,144)"/>
<path d="M0 0 C3.3 0.33 6.6 0.66 10 1 C10 2.98 10 4.96 10 7 C6.433255 7 5.89456323 6.36308045 3.3125 4.0625 C2.68988281 3.51722656 2.06726563 2.97195312 1.42578125 2.41015625 C0.95527344 1.94480469 0.48476562 1.47945312 0 1 C0 0.67 0 0.34 0 0 Z " fill="#0F579F" transform="translate(86,151)"/>
<path d="M0 0 C1.67542976 0.28604898 3.34385343 0.61781233 5 1 C4.690625 1.598125 4.38125 2.19625 4.0625 2.8125 C2.89790296 5.08956772 2.89790296 5.08956772 2 8 C1.34 7.67 0.68 7.34 0 7 C0.33 6.34 0.66 5.68 1 5 C-1.31 5 -3.62 5 -6 5 C-5.195625 4.360625 -4.39125 3.72125 -3.5625 3.0625 C-1.7249496 1.59396498 -1.7249496 1.59396498 0 0 Z " fill="#14497F" transform="translate(196,94)"/>
<path d="M0 0 C-2.59947787 2.59947787 -4.92738453 3.0684435 -8.4375 4.125 C-9.59121094 4.47820312 -10.74492187 4.83140625 -11.93359375 5.1953125 C-15 6 -15 6 -18 6 C-18 5.34 -18 4.68 -18 4 C-15.94037148 3.32451422 -13.87715678 2.65995688 -11.8125 2 C-10.66394531 1.62875 -9.51539063 1.2575 -8.33203125 0.875 C-5.35679188 0.09369447 -3.04716104 -0.18363306 0 0 Z " fill="#070C16" transform="translate(152,212)"/>
<path d="M0 0 C1.31677734 -0.02126953 1.31677734 -0.02126953 2.66015625 -0.04296875 C4.9375 0.1875 4.9375 0.1875 6.9375 2.1875 C3.51517028 3.32827657 0.85076783 3.28565117 -2.75 3.25 C-4.51923828 3.23646484 -4.51923828 3.23646484 -6.32421875 3.22265625 C-7.22785156 3.21105469 -8.13148437 3.19945312 -9.0625 3.1875 C-7.22929782 -0.47890437 -3.67392373 0.02705393 0 0 Z " fill="#1658A4" transform="translate(127.0625,167.8125)"/>
<path d="M0 0 C1.73602074 3.05938081 2.39557633 5.63288438 2.75 9.125 C2.84796875 9.99382812 2.9459375 10.86265625 3.046875 11.7578125 C3 14 3 14 1 16 C1 14.35 1 12.7 1 11 C0.34 11 -0.32 11 -1 11 C-1.0270043 9.54176788 -1.04639787 8.08339325 -1.0625 6.625 C-1.07410156 5.81289062 -1.08570313 5.00078125 -1.09765625 4.1640625 C-1 2 -1 2 0 0 Z " fill="#131B26" transform="translate(217,88)"/>
<path d="M0 0 C0.66 0.33 1.32 0.66 2 1 C2.40729228 3.32156597 2.74438677 5.6568787 3 8 C1.68 8 0.36 8 -1 8 C-1.33 7.34 -1.66 6.68 -2 6 C-3.32 6.99 -4.64 7.98 -6 9 C-5.52797514 4.75177626 -3.03344482 2.80010291 0 0 Z " fill="#072F5C" transform="translate(212,80)"/>
<path d="M0 0 C2.67927341 4.01891012 2.15601248 6.24161923 2 11 C0.35 11.66 -1.3 12.32 -3 13 C-2.52060632 8.28596212 -2.03165952 4.33420699 0 0 Z " fill="#042F5B" transform="translate(14,73)"/>
<path d="M0 0 C0.5625 1.9375 0.5625 1.9375 1 4 C0.67 4.33 0.34 4.66 0 5 C-0.23363881 6.84891946 -0.41303635 8.70488031 -0.5625 10.5625 C-0.64628906 11.57441406 -0.73007813 12.58632812 -0.81640625 13.62890625 C-0.87699219 14.41136719 -0.93757812 15.19382812 -1 16 C-1.33 15.34 -1.66 14.68 -2 14 C-2.66 14 -3.32 14 -4 14 C-3.91276622 12.22825181 -3.80458345 10.45752623 -3.6875 8.6875 C-3.62949219 7.70136719 -3.57148437 6.71523437 -3.51171875 5.69921875 C-2.95377187 2.75615543 -2.31459868 1.81817001 0 0 Z " fill="#15202B" transform="translate(9,88)"/>
<path d="M0 0 C2.77834684 1.38917342 2.99642986 2.95763553 4.125 5.8125 C4.47820313 6.68519531 4.83140625 7.55789062 5.1953125 8.45703125 C6 11 6 11 6 15 C3.0222241 12.50003341 2.05451517 9.95288929 0.8125 6.3125 C0.46832031 5.31863281 0.12414062 4.32476562 -0.23046875 3.30078125 C-0.48441406 2.54152344 -0.73835937 1.78226563 -1 1 C-0.67 0.67 -0.34 0.34 0 0 Z " fill="#141A23" transform="translate(11,146)"/>
<path d="M0 0 C0.99 0.33 1.98 0.66 3 1 C8.7344416 1.38455821 14.32994856 0.82473475 20 0 C19.67 1.32 19.34 2.64 19 4 C13.06 3.67 7.12 3.34 1 3 C0.67 2.01 0.34 1.02 0 0 Z " fill="#E3EEF6" transform="translate(160,80)"/>
<path d="M0 0 C0 1.32 0 2.64 0 4 C-0.66 4.66 -1.32 5.32 -2 6 C-4.64 4.68 -7.28 3.36 -10 2 C-3 -1.5 -3 -1.5 0 0 Z " fill="#0D56A2" transform="translate(96,91)"/>
<path d="M0 0 C0 0.66 0 1.32 0 2 C-1.62487471 2.16788373 -3.24990442 2.33426787 -4.875 2.5 C-6.23238281 2.63921875 -6.23238281 2.63921875 -7.6171875 2.78125 C-10 3 -10 3 -12 3 C-11.67 2.01 -11.34 1.02 -11 0 C-6.94952424 -1.35015859 -4.2079832 -0.62084998 0 0 Z " fill="#1E5B9E" transform="translate(62,153)"/>
<path d="M0 0 C-1.65 1.98 -3.3 3.96 -5 6 C-5.99 5.34 -6.98 4.68 -8 4 C-7.625 2.0625 -7.625 2.0625 -7 0 C-4.3333581 -1.33332095 -2.83319697 -0.67102033 0 0 Z " fill="#124D8C" transform="translate(24,153)"/>
<path d="M0 0 C3.60654039 2.40436026 3.85452932 3.94679607 5 8 C2.69 8 0.38 8 -2 8 C-1.125 1.125 -1.125 1.125 0 0 Z " fill="#0254A3" transform="translate(130,128)"/>
<path d="M0 0 C1.31896465 0.92838287 2.62998689 1.86805732 3.9375 2.8125 C4.66839844 3.33457031 5.39929688 3.85664063 6.15234375 4.39453125 C8 6 8 6 9 9 C8.01 9.33 7.02 9.66 6 10 C1.94611555 7.29741037 1.49652559 4.48957676 0 0 Z " fill="#1E5C9F" transform="translate(130,126)"/>
<path d="M0 0 C4.56454251 0.54339792 7.9728176 1.79463821 12 4 C9 5 9 5 6 4 C5.01 4.33 4.02 4.66 3 5 C3 5.66 3 6.32 3 7 C1.68 6.34 0.36 5.68 -1 5 C-0.01 4.34 0.98 3.68 2 3 C2 2.34 2 1.68 2 1 C1.34 0.67 0.68 0.34 0 0 Z " fill="#E6F0F6" transform="translate(122,105)"/>
<path d="M0 0 C2.74526635 1.37263317 3.44355648 3.40592747 5 6 C5.66 6.33 6.32 6.66 7 7 C7 8.65 7 10.3 7 12 C4 11 4 11 2.83203125 9.00390625 C2.49558594 8.19824219 2.15914063 7.39257812 1.8125 6.5625 C1.46832031 5.75941406 1.12414062 4.95632812 0.76953125 4.12890625 C0 2 0 2 0 0 Z M4 2 C4.66 2 5.32 2 6 2 C6 2.66 6 3.32 6 4 C5.01 3.67 4.02 3.34 3 3 C3.33 2.67 3.66 2.34 4 2 Z " fill="#E8F0F7" transform="translate(64,86)"/>
<path d="M0 0 C4.00972202 3.67557852 6.45335415 7.18966896 9 12 C8.01 12 7.02 12 6 12 C6 11.01 6 10.02 6 9 C5.01 8.67 4.02 8.34 3 8 C1.60287726 6.04402816 0.26220093 4.04563599 -1 2 C-0.67 1.34 -0.34 0.68 0 0 Z " fill="#161A1F" transform="translate(194,42)"/>
<path d="M0 0 C-0.66 1.65 -1.32 3.3 -2 5 C-3.32 4.67 -4.64 4.34 -6 4 C-6.226875 4.639375 -6.45375 5.27875 -6.6875 5.9375 C-8 8 -8 8 -10.625 8.75 C-11.40875 8.8325 -12.1925 8.915 -13 9 C-4.5 0 -4.5 0 0 0 Z " fill="#E5EBF1" transform="translate(85,43)"/>
<path d="M0 0 C0 0.99 0 1.98 0 3 C-0.66 2.67 -1.32 2.34 -2 2 C-1.34 1.34 -0.68 0.68 0 0 Z M-4 3 C-3.34 3.33 -2.68 3.66 -2 4 C-2.7115625 4.6496875 -2.7115625 4.6496875 -3.4375 5.3125 C-5.23686957 7.02309613 -5.23686957 7.02309613 -6 10 C-9.13349732 11.04449911 -9.98968256 10.93423645 -13 10 C-10.03716687 7.61327331 -7.05729491 5.2646629 -4 3 Z " fill="#ECEBE8" transform="translate(180,196)"/>
<path d="M0 0 C-5.04140164 2.81532819 -9.22621075 4.5188509 -15 5 C-12.72676563 2.4061813 -10.76597542 1.31688531 -7.5 0.25 C-6.7265625 -0.01296875 -5.953125 -0.2759375 -5.15625 -0.546875 C-3 -1 -3 -1 0 0 Z " fill="#05203D" transform="translate(71,19)"/>
<path d="M0 0 C5.28 0 10.56 0 16 0 C15.67 0.66 15.34 1.32 15 2 C14.27554688 1.98839844 13.55109375 1.97679687 12.8046875 1.96484375 C7.75216677 1.91768689 2.96621233 1.92622436 -2 3 C-1.34 2.67 -0.68 2.34 0 2 C0 1.34 0 0.68 0 0 Z " fill="#000306" transform="translate(106,5)"/>
<path d="M0 0 C1.61363928 3.22727857 0.08456242 5.68923051 -1 9 C-1.62469505 10.35350594 -2.2716331 11.69934483 -3 13 C-4.1484375 11.296875 -4.1484375 11.296875 -5 9 C-4.1015625 6.640625 -4.1015625 6.640625 -2.625 4.25 C-2.14289062 3.45078125 -1.66078125 2.6515625 -1.1640625 1.828125 C-0.77992187 1.22484375 -0.39578125 0.6215625 0 0 Z " fill="#131C26" transform="translate(18,60)"/>
<path d="M0 0 C4.3177458 0.50797009 8.03302114 1.19682779 12 3 C12 3.99 12 4.98 12 6 C7.24518354 5.42365861 4.02951788 3.44931479 0 1 C0 0.67 0 0.34 0 0 Z " fill="#1758A2" transform="translate(100,162)"/>
<path d="M0 0 C0.99 0.33 1.98 0.66 3 1 C1 4 1 4 -1.625 6.5625 C-4.23262158 8.6715368 -4.23262158 8.6715368 -4 11 C-5.32 10.34 -6.64 9.68 -8 9 C-5.36 6.03 -2.72 3.06 0 0 Z " fill="#EFEEEC" transform="translate(197,179)"/>
<path d="M0 0 C0.33 0.99 0.66 1.98 1 3 C2.32 3 3.64 3 5 3 C5 5 5 5 3.1875 7.125 C1 9 1 9 -2 9 C-1.34 6.03 -0.68 3.06 0 0 Z " fill="#10559E" transform="translate(161,157)"/>
<path d="M0 0 C1.65 1.32 3.3 2.64 5 4 C4.34 4 3.68 4 3 4 C2.71125 4.969375 2.4225 5.93875 2.125 6.9375 C1 10 1 10 -1 11 C-0.67 7.37 -0.34 3.74 0 0 Z " fill="#E7E4E0" transform="translate(219,125)"/>
<path d="M0 0 C0 1.32 0 2.64 0 4 C-0.99 4.33 -1.98 4.66 -3 5 C-4.65 3.35 -6.3 1.7 -8 0 C-4.71023192 -1.09658936 -3.28696233 -0.79953138 0 0 Z " fill="#F0F4F5" transform="translate(72,154)"/>
<path d="M0 0 C0.66 0 1.32 0 2 0 C2 1.65 2 3.3 2 5 C1.34 5 0.68 5 0 5 C-0.33 7.31 -0.66 9.62 -1 12 C-2.88391785 8.73454239 -3.49287967 5.71888239 -4 2 C-3.01 2.33 -2.02 2.66 -1 3 C-0.67 2.01 -0.34 1.02 0 0 Z " fill="#053C6F" transform="translate(12,128)"/>
<path d="M0 0 C2 3 2 3 2 5 C-0.96687001 6.64826111 -3.65626525 7.44271087 -7 8 C-6.02133662 6.85373678 -5.04205413 5.70800212 -4.0625 4.5625 C-3.51722656 3.92441406 -2.97195312 3.28632812 -2.41015625 2.62890625 C-1.63204305 1.73008851 -0.84063472 0.84063472 0 0 Z " fill="#133E6D" transform="translate(205,86)"/>
<path d="M0 0 C0.33 0 0.66 0 1 0 C1.33 3.96 1.66 7.92 2 12 C1.01 12 0.02 12 -1 12 C-1.02698189 10.37509046 -1.04638757 8.75005367 -1.0625 7.125 C-1.07410156 6.22007813 -1.08570313 5.31515625 -1.09765625 4.3828125 C-1 2 -1 2 0 0 Z " fill="#144C93" transform="translate(62,75)"/>
<path d="M0 0 C4.60139641 1.48868707 7.50227094 3.74629855 11 7 C11 7.66 11 8.32 11 9 C7.03935893 7.25731793 3.25563451 4.85325271 0 2 C0 1.34 0 0.68 0 0 Z " fill="#080A11" transform="translate(170,22)"/>
<path d="M0 0 C2 1 4 2 6 3 C6 3.66 6 4.32 6 5 C6.66 5 7.32 5 8 5 C8 5.66 8 6.32 8 7 C4.40608886 5.66511872 1.24509304 4.03977277 -2 2 C-1.34 1.34 -0.68 0.68 0 0 Z " fill="#E8EFF2" transform="translate(90,172)"/>
<path d="M0 0 C0.45375 0.495 0.9075 0.99 1.375 1.5 C2.87635519 3.22609337 2.87635519 3.22609337 5 3 C5 3.66 5 4.32 5 5 C4.01 5.495 4.01 5.495 3 6 C3 7.32 3 8.64 3 10 C-1 5.375 -1 5.375 -1 2 C-0.67 1.34 -0.34 0.68 0 0 Z " fill="#E6EFF0" transform="translate(131,64)"/>
<path d="M0 0 C0.98120464 3.05263664 0.98120464 4.94736336 0 8 C-1.32 8.33 -2.64 8.66 -4 9 C-3.46930939 5.17902761 -2.50298434 2.93828597 0 0 Z " fill="#EAF0F3" transform="translate(70,54)"/>
<path d="M0 0 C1.2380014 3.57644848 0.74926071 6.33694766 0 10 C-1.65 9.67 -3.3 9.34 -5 9 C-4.3566152 7.686298 -3.71021785 6.37407102 -3.0625 5.0625 C-2.70285156 4.33160156 -2.34320312 3.60070313 -1.97265625 2.84765625 C-1 1 -1 1 0 0 Z " fill="#042E58" transform="translate(32,44)"/>
<path d="M0 0 C2.1875 0.0625 2.1875 0.0625 5 1 C6.93157957 3.1717219 8.48201687 5.52601047 10 8 C8.35 7.67 6.7 7.34 5 7 C5 6.01 5 5.02 5 4 C4.360625 3.71125 3.72125 3.4225 3.0625 3.125 C1 2 1 2 0 0 Z " fill="#042547" transform="translate(168,24)"/>
<path d="M0 0 C0.66 0.33 1.32 0.66 2 1 C0.02 3.97 0.02 3.97 -2 7 C-2.66 6.34 -3.32 5.68 -4 5 C-6.58354218 4.83312552 -6.58354218 4.83312552 -9 5 C-6.32239719 2.32239719 -3.52050129 1.32018799 0 0 Z " fill="#EEEEEA" transform="translate(162,208)"/>
<path d="M0 0 C2.31 0 4.62 0 7 0 C7 0.66 7 1.32 7 2 C7.66 2 8.32 2 9 2 C9 2.66 9 3.32 9 4 C10.32 4.33 11.64 4.66 13 5 C12.01 5.495 12.01 5.495 11 6 C8.3984375 5.00390625 8.3984375 5.00390625 5.375 3.5625 C3.87066406 2.85287109 3.87066406 2.85287109 2.3359375 2.12890625 C1.56507812 1.75636719 0.79421875 1.38382813 0 1 C0 0.67 0 0.34 0 0 Z " fill="#05498B" transform="translate(64,206)"/>
<path d="M0 0 C0.99 0.33 1.98 0.66 3 1 C4.1875 3.5625 4.1875 3.5625 5 6 C4.67 6.33 4.34 6.66 4 7 C3.67 7.66 3.34 8.32 3 9 C2.34 9 1.68 9 1 9 C0.45627049 5.94152152 0 3.11227195 0 0 Z " fill="#0655A3" transform="translate(168,192)"/>
<path d="M0 0 C0.66 0 1.32 0 2 0 C3.7265625 1.96875 3.7265625 1.96875 5.625 4.5 C6.25664062 5.3353125 6.88828125 6.170625 7.5390625 7.03125 C8.02117188 7.6809375 8.50328125 8.330625 9 9 C8.01 9.33 7.02 9.66 6 10 C4.99421411 8.71283353 3.99553202 7.42011342 3 6.125 C2.443125 5.40570313 1.88625 4.68640625 1.3125 3.9453125 C0 2 0 2 0 0 Z " fill="#111722" transform="translate(25,174)"/>
<path d="M0 0 C0.66 1.32 1.32 2.64 2 4 C-1.65079826 5.61064629 -5.0507432 6.44894091 -9 7 C-6.24479785 4.04070881 -3.53372712 1.96318174 0 0 Z " fill="#E0EBF6" transform="translate(41,140)"/>
<path d="M0 0 C0.66 0.33 1.32 0.66 2 1 C0.71107323 3.87529818 -0.49296383 6.05008298 -3 8 C-5.6875 8.6875 -5.6875 8.6875 -8 9 C-7.04270084 7.87411986 -6.08412105 6.7493285 -5.125 5.625 C-4.59132812 4.99851562 -4.05765625 4.37203125 -3.5078125 3.7265625 C-2.38567993 2.44163349 -1.20628025 1.20628025 0 0 Z " fill="#030408" transform="translate(40,32)"/>
<path d="M0 0 C2.125 0.9375 2.125 0.9375 4 2 C4 3.32 4 4.64 4 6 C1.69 5.34 -0.62 4.68 -3 4 C-2.67 3.01 -2.34 2.02 -2 1 C-1.34 0.67 -0.68 0.34 0 0 Z " fill="#EDECEC" transform="translate(153,8)"/>
<path d="M0 0 C6.0546875 -0.1953125 6.0546875 -0.1953125 8 0 C8.66 0.66 9.32 1.32 10 2 C6.52674819 3.1577506 3.63932552 3.06866652 0 3 C0 2.01 0 1.02 0 0 Z " fill="#03090E" transform="translate(88,7)"/>
<path d="M0 0 C0 0.66 0 1.32 0 2 C0.66 2.33 1.32 2.66 2 3 C-1.08809695 4.76462683 -2.23312136 5 -6 5 C-5.6875 3.0625 -5.6875 3.0625 -5 1 C-2 0 -2 0 0 0 Z " fill="#0E59A1" transform="translate(138,185)"/>
<path d="M0 0 C1.65 0.99 3.3 1.98 5 3 C4.34 4.32 3.68 5.64 3 7 C0.525 6.01 0.525 6.01 -2 5 C-1.34 3.35 -0.68 1.7 0 0 Z " fill="#0D58A3" transform="translate(82,169)"/>
<path d="M0 0 C0.66 0 1.32 0 2 0 C2 0.66 2 1.32 2 2 C2.66 2 3.32 2 4 2 C4 3.65 4 5.3 4 7 C3.01 7 2.02 7 1 7 C0 6 0 6 -0.0625 2.9375 C-0.041875 1.968125 -0.02125 0.99875 0 0 Z " fill="#0B549B" transform="translate(161,142)"/>
<path d="M0 0 C0 0.66 0 1.32 0 2 C-2.3125 2.625 -2.3125 2.625 -5 3 C-5.99 2.34 -6.98 1.68 -8 1 C-7 -1 -7 -1 -5.125 -1.75 C-3 -2 -3 -2 0 0 Z " fill="#0B57A4" transform="translate(120,100)"/>
<path d="M0 0 C1.65 0 3.3 0 5 0 C4.67 1.65 4.34 3.3 4 5 C2.35 5.33 0.7 5.66 -1 6 C-1 3 -1 3 0 0 Z " fill="#0556A3" transform="translate(153,96)"/>
<path d="M0 0 C0.99 0.33 1.98 0.66 3 1 C3.33 4.3 3.66 7.6 4 11 C0.09618178 7.09618178 0.43755817 5.33820964 0 0 Z " fill="#0B0F17" transform="translate(213,79)"/>
<path d="M0 0 C3.057952 1.73559438 5.63379989 3.38472619 8 6 C7.67 6.66 7.34 7.32 7 8 C5.35 7.67 3.7 7.34 2 7 C2.66 6.67 3.32 6.34 4 6 C4 5.34 4 4.68 4 4 C2.68 3.34 1.36 2.68 0 2 C0 1.34 0 0.68 0 0 Z " fill="#1A4C82" transform="translate(119,57)"/>
<path d="M0 0 C-1.5830577 4.2742558 -4.50568404 6.26531794 -8 9 C-7.53918323 4.85264908 -4.48412936 0 0 0 Z " fill="#06080F" transform="translate(192,184)"/>
<path d="M0 0 C4.24846075 0.47205119 6.26819288 2.88877522 9 6 C9 6.66 9 7.32 9 8 C4.7257442 6.4169423 2.73468206 3.49431596 0 0 Z " fill="#020710" transform="translate(32,184)"/>
<path d="M0 0 C1.65 0 3.3 0 5 0 C5 1.65 5 3.3 5 5 C3.35 5 1.7 5 0 5 C0 3.35 0 1.7 0 0 Z " fill="#022F5B" transform="translate(192,51)"/>
<path d="M0 0 C0.99 0 1.98 0 3 0 C4 3 4 3 4 6 C2.35 5.67 0.7 5.34 -1 5 C-0.67 3.35 -0.34 1.7 0 0 Z " fill="#043469" transform="translate(131,40)"/>
<path d="M0 0 C0.99 0 1.98 0 3 0 C1.68775452 3.93673644 0.08089673 6.22719294 -3 9 C-2.67 7.35 -2.34 5.7 -2 4 C-1.34 4 -0.68 4 0 4 C0 2.68 0 1.36 0 0 Z " fill="#06457E" transform="translate(198,169)"/>
<path d="M0 0 C5.75 3.625 5.75 3.625 8 7 C7.01 7.33 6.02 7.66 5 8 C0 2.25 0 2.25 0 0 Z M1 5 C1.99 5.495 1.99 5.495 3 6 C2.01 6.495 2.01 6.495 1 7 C1 6.34 1 5.68 1 5 Z " fill="#E5EFF8" transform="translate(75,143)"/>
<path d="M0 0 C2.64 0 5.28 0 8 0 C7.67 0.99 7.34 1.98 7 3 C4.69 3 2.38 3 0 3 C0 2.01 0 1.02 0 0 Z " fill="#CEDAE6" transform="translate(52,136)"/>
<path d="M0 0 C2.64 0 5.28 0 8 0 C8.33 0.66 8.66 1.32 9 2 C7.35 2 5.7 2 4 2 C4 2.66 4 3.32 4 4 C2.68 4 1.36 4 0 4 C0 2.68 0 1.36 0 0 Z " fill="#002142" transform="translate(128,12)"/>
<path d="M0 0 C4.55737263 0.43820891 7.57653445 0.85041169 11 4 C8 5 8 5 5.95703125 4.22265625 C5.24933594 3.83980469 4.54164062 3.45695313 3.8125 3.0625 C3.09707031 2.68222656 2.38164063 2.30195313 1.64453125 1.91015625 C1.10183594 1.60980469 0.55914062 1.30945313 0 1 C0 0.67 0 0.34 0 0 Z " fill="#1D212B" transform="translate(59,206)"/>
<path d="M0 0 C4.85077588 1.11940982 7.777893 2.1334716 11 6 C6.48986609 5.46939601 3.61621781 3.69113883 0 1 C0 0.67 0 0.34 0 0 Z " fill="#0F5096" transform="translate(73,141)"/>
<path d="M0 0 C2.4375 0.8125 2.4375 0.8125 5 2 C5.33 2.99 5.66 3.98 6 5 C4.125 5.625 4.125 5.625 2 6 C1.34 5.34 0.68 4.68 0 4 C0 2.68 0 1.36 0 0 Z " fill="#0E57A4" transform="translate(138,138)"/>
<path d="M0 0 C0.66 0 1.32 0 2 0 C0.66511872 3.59391114 -0.96022723 6.75490696 -3 10 C-3.33 9.34 -3.66 8.68 -4 8 C-1.48571429 1.48571429 -1.48571429 1.48571429 0 0 Z " fill="#040B15" transform="translate(22,54)"/>
<path d="M0 0 C0.99 0.33 1.98 0.66 3 1 C4.1875 4.5625 4.1875 4.5625 5 8 C4.01 8.495 4.01 8.495 3 9 C2.01 6.03 1.02 3.06 0 0 Z " fill="#0D53A2" transform="translate(154,125)"/>
<path d="M0 0 C-0.33 0.99 -0.66 1.98 -1 3 C-4.5625 4.6875 -4.5625 4.6875 -8 6 C-6.98565881 3.46414701 -6.34981128 2.21863205 -4 0.75 C-2 0 -2 0 0 0 Z " fill="#1A191F" transform="translate(167,204)"/>
<path d="M0 0 C0.99 0 1.98 0 3 0 C1.66667905 3.99996286 -0.4957827 4.83782337 -4 7 C-3.6875 5.0625 -3.6875 5.0625 -3 3 C-2.01 2.67 -1.02 2.34 0 2 C0 1.34 0 0.68 0 0 Z " fill="#111620" transform="translate(181,192)"/>
<path d="M0 0 C0.33 0.66 0.66 1.32 1 2 C2.65 2 4.3 2 6 2 C5.67 3.32 5.34 4.64 5 6 C2.69 5.01 0.38 4.02 -2 3 C-1.34 2.01 -0.68 1.02 0 0 Z " fill="#E5EEF1" transform="translate(102,178)"/>
<path d="M0 0 C3.39417765 3.12621626 5.6062718 5.56541027 7 10 C6.34 10 5.68 10 5 10 C4.731875 9.401875 4.46375 8.80375 4.1875 8.1875 C3.11977597 5.95732387 3.11977597 5.95732387 1.375 4.4375 C0 3 0 3 0 0 Z " fill="#D6E5F3" transform="translate(150,123)"/>
<path d="M0 0 C-3 2 -3 2 -6.1875 1.625 C-7.115625 1.41875 -8.04375 1.2125 -9 1 C-8 -1 -8 -1 -6.1875 -1.75 C-3.50171361 -2.05694702 -2.2747813 -1.38111722 0 0 Z " fill="#1358A1" transform="translate(112,99)"/>
<path d="M0 0 C2.52588702 2.36292656 3.88820837 3.66462511 5 7 C4.34 7.66 3.68 8.32 3 9 C1.68 6.36 0.36 3.72 -1 1 C-0.67 0.67 -0.34 0.34 0 0 Z " fill="#0F478E" transform="translate(127,65)"/>
<path d="M0 0 C1.4606285 2.64738916 2 3.89448334 2 7 C0.68 7.33 -0.64 7.66 -2 8 C-1.125 1.125 -1.125 1.125 0 0 Z " fill="#17518D" transform="translate(82,64)"/>
<path d="M0 0 C1.32 0.66 2.64 1.32 4 2 C3.67 2.99 3.34 3.98 3 5 C2.34 4.34 1.68 3.68 1 3 C0.67 3.66 0.34 4.32 0 5 C-0.99 4.67 -1.98 4.34 -3 4 C-3 3.34 -3 2.68 -3 2 C-2.01 1.34 -1.02 0.68 0 0 Z " fill="#073A70" transform="translate(140,48)"/>
<path d="M0 0 C3.96 0.33 7.92 0.66 12 1 C12 1.33 12 1.66 12 2 C6.06 2.495 6.06 2.495 0 3 C0 2.01 0 1.02 0 0 Z " fill="#102D4D" transform="translate(92,216)"/>
<path d="M0 0 C0.33 0.99 0.66 1.98 1 3 C0.67 3.66 0.34 4.32 0 5 C-2.97 4.505 -2.97 4.505 -6 4 C-5.01 3.01 -4.02 2.02 -3 1 C-2.01 1.33 -1.02 1.66 0 2 C0 1.34 0 0.68 0 0 Z " fill="#125BA6" transform="translate(39,163)"/>
<path d="M0 0 C0 0.66 0 1.32 0 2 C-2.70879335 3.35439668 -5.00933268 3.06501451 -8 3 C-8 2.34 -8 1.68 -8 1 C-5.07175348 0.02391783 -3.04386724 -0.08226668 0 0 Z " fill="#0B53A2" transform="translate(48,136)"/>
<path d="M0 0 C2.97 0.495 2.97 0.495 6 1 C6.33 1.99 6.66 2.98 7 4 C6.01 5.485 6.01 5.485 5 7 C3.35 4.69 1.7 2.38 0 0 Z " fill="#094993" transform="translate(149,121)"/>
<path d="M0 0 C2.66666667 0.66666667 5.33333333 1.33333333 8 2 C6.68 2.99 5.36 3.98 4 5 C4 4.34 4 3.68 4 3 C3.01 3.33 2.02 3.66 1 4 C0.67 2.68 0.34 1.36 0 0 Z " fill="#0657A7" transform="translate(151,119)"/>
<path d="M0 0 C4.51720311 -0.36625971 4.51720311 -0.36625971 6.8125 1.375 C8 3 8 3 8 5 C4.62496331 3.8141763 2.35277269 2.72426311 0 0 Z " fill="#105099" transform="translate(131,107)"/>
<path d="M0 0 C1.5 1.3125 1.5 1.3125 3 3 C3 3.99 3 4.98 3 6 C2.01 5.67 1.02 5.34 0 5 C0 4.34 0 3.68 0 3 C-1.32 2.67 -2.64 2.34 -4 2 C-2.68 1.34 -1.36 0.68 0 0 Z " fill="#0456A6" transform="translate(136,104)"/>
<path d="M0 0 C1.0625 1.8125 1.0625 1.8125 2 4 C1.67 4.99 1.34 5.98 1 7 C0.01 6.67 -0.98 6.34 -2 6 C-2.6875 3.9375 -2.6875 3.9375 -3 2 C-2.34 2 -1.68 2 -1 2 C-0.67 1.34 -0.34 0.68 0 0 Z " fill="#0656A6" transform="translate(67,97)"/>
<path d="M0 0 C2.97 0.33 5.94 0.66 9 1 C8.01 2.32 7.02 3.64 6 5 C3.98079663 3.69593116 1.98075027 2.36176581 0 1 C0 0.67 0 0.34 0 0 Z " fill="#E1EDF6" transform="translate(147,90)"/>
<path d="M0 0 C0.66 0.33 1.32 0.66 2 1 C2 2.32 2 3.64 2 5 C0.125 5.625 0.125 5.625 -2 6 C-2.66 5.34 -3.32 4.68 -4 4 C-3.34 3.67 -2.68 3.34 -2 3 C-2.33 2.34 -2.66 1.68 -3 1 C-2.01 0.67 -1.02 0.34 0 0 Z " fill="#111B24" transform="translate(80,9)"/>
<path d="M0 0 C5.75 0.75 5.75 0.75 8 3 C7.01 3.66 6.02 4.32 5 5 C3.35 3.35 1.7 1.7 0 0 Z " fill="#115497" transform="translate(24,144)"/>
<path d="M0 0 C1.65 0 3.3 0 5 0 C3.515 2.475 3.515 2.475 2 5 C1.01 4.34 0.02 3.68 -1 3 C-0.67 2.01 -0.34 1.02 0 0 Z " fill="#0F59A3" transform="translate(70,136)"/>
<path d="M0 0 C2.50037734 2.17424117 3.43628586 3.73045798 4 7 C2.68 7.33 1.36 7.66 0 8 C-0.33 7.34 -0.66 6.68 -1 6 C-0.01 6 0.98 6 2 6 C1.34 4.02 0.68 2.04 0 0 Z " fill="#164076" transform="translate(177,72)"/>
<path d="M0 0 C1.98 0.495 1.98 0.495 4 1 C3.34 2.65 2.68 4.3 2 6 C1.01 5.67 0.02 5.34 -1 5 C-0.67 3.35 -0.34 1.7 0 0 Z " fill="#F3F4F2" transform="translate(10,68)"/>
</svg>
