<?xml version="1.0" encoding="UTF-8"?>
<svg version="1.1" xmlns="http://www.w3.org/2000/svg" width="225" height="225">
<path d="M0 0 C74.25 0 148.5 0 225 0 C225 74.25 225 148.5 225 225 C150.75 225 76.5 225 0 225 C0 150.75 0 76.5 0 0 Z " fill="#FEFEFE" transform="translate(0,0)"/>
<path d="M0 0 C9.23608057 7.24960648 15.85875109 18.59347963 17.40917969 30.20361328 C18.87607427 46.25098334 15.27653747 59.86944283 9.98925781 74.90185547 C8.71546685 78.79052041 7.86905047 82.68350396 7.07421875 86.6953125 C10.86242908 86.97917719 10.86242908 86.97917719 13.19921875 85.6953125 C15.47271915 83.27024541 15.90054824 81.02809426 16.59765625 77.83203125 C17.37514936 74.34605803 18.23473547 71.80340494 20.07421875 68.6953125 C23.76171875 67.7578125 23.76171875 67.7578125 27.07421875 67.6953125 C26.74421875 70.3353125 26.41421875 72.9753125 26.07421875 75.6953125 C26.71037109 74.95474609 26.71037109 74.95474609 27.359375 74.19921875 C32.74831657 68.31283642 32.74831657 68.31283642 36.94921875 67.6953125 C37.98046875 67.6953125 39.01171875 67.6953125 40.07421875 67.6953125 C41.07421875 68.6953125 41.07421875 68.6953125 41.32421875 72.2578125 C41.29578931 76.21661171 40.33348193 79.24400055 38.73046875 82.8359375 C37.85233867 84.99534175 37.85233867 84.99534175 38.07421875 88.6953125 C41.06574457 87.92051514 41.06574457 87.92051514 44.07421875 86.6953125 C44.40421875 85.7053125 44.73421875 84.7153125 45.07421875 83.6953125 C45.40421875 85.0153125 45.73421875 86.3353125 46.07421875 87.6953125 C37.99677 94.39918494 37.99677 94.39918494 32.07421875 94.6953125 C30.51171875 93.1953125 30.51171875 93.1953125 29.07421875 90.6953125 C29.27927864 84.64604572 30.99437602 79.34620595 33.07421875 73.6953125 C29.0432563 75.82276491 26.44533784 77.77070159 24.07421875 81.6953125 C23.16600584 85.33329529 22.56869037 88.98026914 22.07421875 92.6953125 C20.09421875 93.0253125 18.11421875 93.3553125 16.07421875 93.6953125 C15.41421875 92.0453125 14.75421875 90.3953125 14.07421875 88.6953125 C13.4709375 89.14003906 12.86765625 89.58476562 12.24609375 90.04296875 C11.446875 90.60886719 10.64765625 91.17476563 9.82421875 91.7578125 C9.0353125 92.32628906 8.24640625 92.89476562 7.43359375 93.48046875 C5.07421875 94.6953125 5.07421875 94.6953125 2.88671875 94.5078125 C0.46714729 93.42317702 -0.50908499 91.8911917 -1.92578125 89.6953125 C-2.30347656 90.11941406 -2.68117188 90.54351562 -3.0703125 90.98046875 C-16.39003966 105.17362064 -35.12999233 111.19709176 -54.16015625 111.859375 C-62.41554962 112.05422815 -70.45025899 111.7441309 -78.61328125 110.4453125 C-79.33064453 110.33606445 -80.04800781 110.22681641 -80.78710938 110.11425781 C-86.90468694 109.02408146 -92.49391346 106.85697276 -97.17578125 102.6953125 C-106.36177714 86.94789097 -106.75762045 62.43777894 -102.42578125 45.0703125 C-98.57709239 32.26835797 -92.77253979 20.88240257 -82.92578125 11.6953125 C-82.11625 10.92832031 -81.30671875 10.16132812 -80.47265625 9.37109375 C-58.56078124 -9.94940682 -25.31027448 -17.14732591 0 0 Z " fill="#F79939" transform="translate(178.92578125,61.3046875)"/>
<path d="M0 0 C10.02463545 6.56786461 15.84578549 14.05408465 18.94140625 25.65234375 C20.42546076 35.70471295 21.25785638 49.27766346 16.35546875 58.45703125 C12.92322745 62.62333572 8.51444615 63.54371946 3.35546875 64.45703125 C-11.25777802 65.85752634 -24.36406322 64.02846901 -36.203125 54.72265625 C-44.6522784 46.8818419 -49.90421846 36.14660438 -50.8828125 24.66015625 C-51.11497245 15.42263386 -49.18691519 9.38017539 -43.45703125 2.14453125 C-32.08788965 -9.79664263 -13.25447226 -7.733407 0 0 Z " fill="#3499CD" transform="translate(50.64453125,107.54296875)"/>
<path d="M0 0 C1.03156331 8.63456695 -1.46474277 14.70322782 -6 22 C-6.92703023 23.08991926 -7.88048404 24.15878865 -8.875 25.1875 C-11.82266806 29.08882537 -11.4725031 32.27496896 -11 37 C-8.80485127 37.9593157 -8.80485127 37.9593157 -6 38 C-1.10441022 34.96473433 0.50388705 32.37614647 2.22265625 26.99609375 C3.93916146 22.58838439 7.10299077 19.59800615 11 17 C14.5620149 16.44702591 17.86676772 16.3818733 21.0625 18.125 C22.55466283 21.10932566 22.01841755 22.88109626 21 26 C18.01176342 28.98823658 15.02002438 30.73051862 11 32 C10.01 32 9.02 32 8 32 C9.75454385 35.18234105 9.75454385 35.18234105 12 38 C15.53319186 37.80000801 18.15761171 37.5698509 21.125 35.5625 C22.91536009 33.11567455 24.00167752 30.87378956 25.25 28.125 C27.76885614 22.90185045 30.73519848 19.5423186 36 17 C40.32300499 16.42359933 43.29868466 16.63115818 47 19 C47.99 18.34 48.98 17.68 50 17 C50.99 17 51.98 17 53 17 C52.79503906 17.76183594 52.59007812 18.52367187 52.37890625 19.30859375 C50.74722695 25.56206324 49.53672183 31.55933806 49 38 C54.81380592 35.15009514 57.53058842 32.46695158 61 27 C59.515 26.505 59.515 26.505 58 26 C58.59731544 20.62416107 58.59731544 20.62416107 60.25 18.0625 C62 17 62 17 64.6875 17.3125 C65.450625 17.539375 66.21375 17.76625 67 18 C66.67 19.98 66.34 21.96 66 24 C69.53600465 22.08864614 71.78972846 20.37357234 74 17 C75.485 17.495 75.485 17.495 77 18 C76.62746094 19.03640625 76.25492187 20.0728125 75.87109375 21.140625 C75.39267273 22.51022242 74.91483879 23.88002502 74.4375 25.25 C74.0672168 26.27287109 74.0672168 26.27287109 73.68945312 27.31640625 C71.97471871 32.14911997 71.97471871 32.14911997 73 37 C75.91517292 35.92598892 77.77810176 35.22189824 80 33 C80.49333533 31.05954772 80.9842578 29.11838428 81.453125 27.171875 C82.32489384 23.70970732 83.15998533 21.1089903 85 18 C88.6875 17.0625 88.6875 17.0625 92 17 C91.67 19.64 91.34 22.28 91 25 C91.42410156 24.50628906 91.84820312 24.01257813 92.28515625 23.50390625 C97.67409782 17.61752392 97.67409782 17.61752392 101.875 17 C102.90625 17 103.9375 17 105 17 C106 18 106 18 106.25 21.5625 C106.22157056 25.52129921 105.25926318 28.54868805 103.65625 32.140625 C102.77811992 34.30002925 102.77811992 34.30002925 103 38 C105.99152582 37.22520264 105.99152582 37.22520264 109 36 C109.33 35.01 109.66 34.02 110 33 C110.33 34.32 110.66 35.64 111 37 C102.92255125 43.70387244 102.92255125 43.70387244 97 44 C95.4375 42.5 95.4375 42.5 94 40 C94.20505989 33.95073322 95.92015727 28.65089345 98 23 C93.96903755 25.12745241 91.37111909 27.07538909 89 31 C88.09178709 34.63798279 87.49447162 38.28495664 87 42 C85.02 42.33 83.04 42.66 81 43 C80.01 40.525 80.01 40.525 79 38 C78.39671875 38.44472656 77.7934375 38.88945312 77.171875 39.34765625 C76.37265625 39.91355469 75.5734375 40.47945312 74.75 41.0625 C73.96109375 41.63097656 73.1721875 42.19945312 72.359375 42.78515625 C70 44 70 44 67.828125 43.87109375 C66 43 66 43 64 40 C64.28284157 35.0031322 65.5621238 31.34577931 68 27 C65.54775306 27.10613836 65.54775306 27.10613836 63 28 C62.32795891 29.66450683 61.66209797 31.33151311 61 33 C57.47749685 37.24566605 53.17070947 41.90376643 48 44 C45.1875 43.6875 45.1875 43.6875 43 43 C42.34 40.69 41.68 38.38 41 36 C40.2575 36.94875 39.515 37.8975 38.75 38.875 C36.70388554 41.3061978 35.14579731 43.11524451 32 44 C29.5 43.9375 29.5 43.9375 27 43 C24.6875 40.4375 24.6875 40.4375 23 38 C22.030625 38.804375 21.06125 39.60875 20.0625 40.4375 C15.95016766 43.35700572 12.0511917 44.5022761 7 44 C3.61851373 41.98549754 2.18101636 40.27152454 0 37 C-0.9075 37.78375 -1.815 38.5675 -2.75 39.375 C-6.53626878 42.48168207 -8.47060418 44.05366301 -13.5625 43.875 C-17 43 -17 43 -18.68359375 41.2734375 C-21.85519403 35.7960744 -20.5785685 28.85610216 -19.015625 22.97265625 C-17.83188491 18.92289378 -16.43837812 14.96593273 -15 11 C-14.67773438 10.03835937 -14.35546875 9.07671875 -14.0234375 8.0859375 C-12.54586191 4.14145309 -11.38265046 1.75023756 -7.5 -0.125 C-4.12962934 -0.96759267 -3.13298876 -0.97562369 0 0 Z " fill="#0A0602" transform="translate(114,112)"/>
<path d="M0 0 C0.99 0.33 1.98 0.66 3 1 C2.62746094 2.03640625 2.25492188 3.0728125 1.87109375 4.140625 C1.39267273 5.51022242 0.91483879 6.88002502 0.4375 8.25 C0.19064453 8.93191406 -0.05621094 9.61382812 -0.31054688 10.31640625 C-2.02528129 15.14911997 -2.02528129 15.14911997 -1 20 C1.91517292 18.92598892 3.77810176 18.22189824 6 16 C6.49333533 14.05954772 6.9842578 12.11838428 7.453125 10.171875 C8.32489384 6.70970732 9.15998533 4.1089903 11 1 C14.6875 0.0625 14.6875 0.0625 18 0 C17.67 2.64 17.34 5.28 17 8 C17.42410156 7.50628906 17.84820312 7.01257813 18.28515625 6.50390625 C23.67409782 0.61752392 23.67409782 0.61752392 27.875 0 C28.90625 0 29.9375 0 31 0 C32 1 32 1 32.25 4.5625 C32.22157056 8.52129921 31.25926318 11.54868805 29.65625 15.140625 C28.77811992 17.30002925 28.77811992 17.30002925 29 21 C31.99152582 20.22520264 31.99152582 20.22520264 35 19 C35.495 17.515 35.495 17.515 36 16 C36.495 17.98 36.495 17.98 37 20 C28.92255125 26.70387244 28.92255125 26.70387244 23 27 C21.4375 25.5 21.4375 25.5 20 23 C20.20505989 16.95073322 21.92015727 11.65089345 24 6 C19.96903755 8.12745241 17.37111909 10.07538909 15 14 C14.09178709 17.63798279 13.49447162 21.28495664 13 25 C11.02 25.33 9.04 25.66 7 26 C6.34 24.35 5.68 22.7 5 21 C4.39671875 21.44472656 3.7934375 21.88945312 3.171875 22.34765625 C1.97304687 23.19650391 1.97304687 23.19650391 0.75 24.0625 C-0.03890625 24.63097656 -0.8278125 25.19945312 -1.640625 25.78515625 C-4 27 -4 27 -6.171875 26.87109375 C-8 26 -8 26 -10 23 C-9.64093266 14.20285017 -6.00263734 6.3361172 0 0 Z " fill="#080807" transform="translate(188,129)"/>
<path d="M0 0 C1.03156331 8.63456695 -1.46474277 14.70322782 -6 22 C-6.92703023 23.08991926 -7.88048404 24.15878865 -8.875 25.1875 C-11.82266806 29.08882537 -11.4725031 32.27496896 -11 37 C-8.23735711 37.59732819 -5.83967231 38 -3 38 C-4 41 -4 41 -6.625 42.75 C-10.66849376 44.24759028 -12.86994705 44.16888291 -17 43 C-19.86889098 40.03748553 -20.45448216 37.82384667 -20.5 33.75 C-20.30246496 25.68069368 -17.72456595 18.51224253 -15 11 C-14.67773438 10.03835937 -14.35546875 9.07671875 -14.0234375 8.0859375 C-12.54586191 4.14145309 -11.38265046 1.75023756 -7.5 -0.125 C-4.12962934 -0.96759267 -3.13298876 -0.97562369 0 0 Z " fill="#0A0602" transform="translate(114,112)"/>
<path d="M0 0 C1.67542976 0.28604898 3.34385343 0.61781233 5 1 C5.5167325 7.0716069 4.1855142 11.76893822 1 17 C-2 19 -2 19 -4.1875 18.625 C-5.0846875 18.315625 -5.0846875 18.315625 -6 18 C-6.74224763 10.87442279 -5.39195732 6.64474515 -1 1 C-0.67 0.67 -0.34 0.34 0 0 Z " fill="#EF9337" transform="translate(152,131)"/>
<path d="M0 0 C7.33834586 -0.36090226 7.33834586 -0.36090226 10.0625 1.125 C11.55466283 4.10932566 11.01841755 5.88109626 10 9 C6.72788769 12.36560123 3.48224651 13.74914051 -1 15 C-1 14.34 -1 13.68 -1 13 C-1.66 13 -2.32 13 -3 13 C-3.31168286 8.42865137 -2.89810944 6.50188224 0 3 C0 2.01 0 1.02 0 0 Z " fill="#100A04" transform="translate(125,129)"/>
<path d="M0 0 C0.66 0.33 1.32 0.66 2 1 C1.74330594 8.82916885 -0.62224797 14.49723837 -5 21 C-5.66 21.33 -6.32 21.66 -7 22 C-6.40862322 14.16425761 -4.39400565 6.59100848 0 0 Z " fill="#DC8832" transform="translate(110,114)"/>
<path d="M0 0 C4.55555556 0.55555556 4.55555556 0.55555556 6 2 C6.125 5.5 6.125 5.5 6 9 C5 10 5 10 2 10.125 C-1 10 -1 10 -2 9 C-2.1875 5.5625 -2.1875 5.5625 -2 2 C-1.34 1.34 -0.68 0.68 0 0 Z " fill="#F89C3D" transform="translate(137,108)"/>
<path d="M0 0 C1.32 0.33 2.64 0.66 4 1 C4.3125 3.1875 4.3125 3.1875 4 6 C1.6875 8.8125 1.6875 8.8125 -1 11 C-1.99 11 -2.98 11 -4 11 C-4.36630156 7.06225823 -4.30233203 5.43460229 -2 2.125 C-1.34 1.42375 -0.68 0.7225 0 0 Z " fill="#E58D34" transform="translate(126,131)"/>
<path d="M0 0 C0.66 0 1.32 0 2 0 C2.33 1.98 2.66 3.96 3 6 C4.32 5.34 5.64 4.68 7 4 C6.79375 4.7425 6.5875 5.485 6.375 6.25 C5.95591249 9.32330841 6.38050989 10.42786866 8 13 C5.00667261 12.0022242 4.05233685 11.2477975 2 9 C2 10.32 2 11.64 2 13 C1.34 13 0.68 13 0 13 C0 8.71 0 4.42 0 0 Z " fill="#FDEDE1" transform="translate(148,105)"/>
<path d="M0 0 C2.4375 0.375 2.4375 0.375 5 1 C5.33 1.66 5.66 2.32 6 3 C3.03 2.505 3.03 2.505 0 2 C0 2.66 0 3.32 0 4 C1.98 4.66 3.96 5.32 6 6 C5.67 7.32 5.34 8.64 5 10 C3.35 10.33 1.7 10.66 0 11 C-0.66 9.68 -1.32 8.36 -2 7 C-1.34 7 -0.68 7 0 7 C0 7.66 0 8.32 0 9 C1.32 9 2.64 9 4 9 C2.62308038 6.24616077 0.63279958 5.48516899 -2 4 C-1.34 2.68 -0.68 1.36 0 0 Z " fill="#FDEDE0" transform="translate(127,108)"/>
<path d="M0 0 C2.625 0.375 2.625 0.375 5 1 C5.33 1.99 5.66 2.98 6 4 C3.03 3.505 3.03 3.505 0 3 C0 4.65 0 6.3 0 8 C1.98 7.67 3.96 7.34 6 7 C5.67 7.99 5.34 8.98 5 10 C3.00045254 10.04254356 0.99958364 10.04080783 -1 10 C-2 9 -2 9 -2.1875 5.5625 C-2 2 -2 2 0 0 Z " fill="#FDEDDF" transform="translate(137,108)"/>
<path d="M0 0 C0.185625 0.9590625 0.185625 0.9590625 0.375 1.9375 C0.684375 2.9584375 0.684375 2.9584375 1 4 C1.66 4.33 2.32 4.66 3 5 C2.34 5 1.68 5 1 5 C1 7.31 1 9.62 1 12 C1.66 12.33 2.32 12.66 3 13 C1.68 13 0.36 13 -1 13 C-1.2236337 11.58566794 -1.42826476 10.16832382 -1.625 8.75 C-1.74101562 7.96109375 -1.85703125 7.1721875 -1.9765625 6.359375 C-2.00319395 3.67847541 -1.36592084 2.27305911 0 0 Z " fill="#FEF0E5" transform="translate(163,105)"/>
<path d="M0 0 C2.64 0 5.28 0 8 0 C8 2.31 8 4.62 8 7 C7.34 7 6.68 7 6 7 C5.67 6.01 5.34 5.02 5 4 C2.49552484 2.78130071 2.49552484 2.78130071 0 2 C0 1.34 0 0.68 0 0 Z " fill="#F8A146" transform="translate(127,110)"/>
<path d="M0 0 C0.66 0 1.32 0 2 0 C2 4.29 2 8.58 2 13 C1.34 13 0.68 13 0 13 C0 9.7 0 6.4 0 3 C-0.66 2.67 -1.32 2.34 -2 2 C-1.34 2 -0.68 2 0 2 C0 1.34 0 0.68 0 0 Z " fill="#F79328" transform="translate(146,105)"/>
</svg>
